<svg width="110" height="36" viewBox="0 0 110 36" fill="none" xmlns="http://www.w3.org/2000/svg">
<path d="M47.4531 24.1953C46.7305 24.1953 46.0794 24.0163 45.5 23.6582C44.9141 23.3001 44.4421 22.8184 44.084 22.2129C43.7324 21.6074 43.5566 20.9303 43.5566 20.1816V13.8438C43.5566 13.1146 43.7357 12.4505 44.0938 11.8516C44.4453 11.2461 44.9173 10.7643 45.5098 10.4062C46.1022 10.0417 46.75 9.85938 47.4531 9.85938C48.1888 9.85938 48.8529 10.0352 49.4453 10.3867C50.0378 10.7448 50.5065 11.2233 50.8516 11.8223C51.2031 12.4212 51.3789 13.0951 51.3789 13.8438V14.7617C51.3789 14.8138 51.3464 14.8398 51.2812 14.8398H49.0352C48.9831 14.8398 48.957 14.8138 48.957 14.7617V14C48.957 13.4922 48.8138 13.0723 48.5273 12.7402C48.2409 12.4082 47.8828 12.2422 47.4531 12.2422C47.069 12.2422 46.7272 12.4017 46.4277 12.7207C46.1283 13.0397 45.9785 13.4141 45.9785 13.8438V20.1816C45.9785 20.6178 46.125 20.9954 46.418 21.3145C46.7109 21.627 47.056 21.7832 47.4531 21.7832C47.8828 21.7832 48.2409 21.6302 48.5273 21.3242C48.8138 21.0117 48.957 20.6309 48.957 20.1816V19.1953H47.5605C47.4889 19.1953 47.4531 19.1628 47.4531 19.0977V16.8613C47.4531 16.7962 47.4889 16.7637 47.5605 16.7637H51.3008C51.3529 16.7637 51.3789 16.7962 51.3789 16.8613V20.1816C51.3789 20.9303 51.2031 21.6074 50.8516 22.2129C50.4935 22.8184 50.0215 23.3001 49.4355 23.6582C48.8496 24.0163 48.1888 24.1953 47.4531 24.1953ZM59.3379 24H52.873C52.821 24 52.7949 23.9674 52.7949 23.9023L52.8145 10.1621C52.8145 10.11 52.8405 10.084 52.8926 10.084H59.3184C59.3704 10.084 59.3965 10.1165 59.3965 10.1816V12.418C59.3965 12.4701 59.3704 12.4961 59.3184 12.4961H55.2168V15.6211H59.3184C59.3704 15.6211 59.3965 15.6471 59.3965 15.6992L59.416 17.9648C59.416 18.0169 59.39 18.043 59.3379 18.043H55.2168V21.5391H59.3379C59.39 21.5391 59.416 21.5716 59.416 21.6367V23.9219C59.416 23.974 59.39 24 59.3379 24ZM63.3711 24H61.3691C61.265 24 61.2129 23.9544 61.2129 23.8633L61.1934 10.2402C61.1934 10.1361 61.2454 10.084 61.3496 10.084H63.1562L66.5352 17.9648L66.4375 10.2402C66.4375 10.1361 66.4961 10.084 66.6133 10.084H68.5957C68.6738 10.084 68.7129 10.1361 68.7129 10.2402L68.7324 23.8828C68.7324 23.9609 68.6999 24 68.6348 24H66.877L63.4102 16.6367L63.5566 23.8438C63.5566 23.9479 63.4948 24 63.3711 24ZM72.8145 24H70.5684C70.5033 24 70.4707 23.9674 70.4707 23.9023L70.5098 10.1621C70.5098 10.11 70.5358 10.084 70.5879 10.084H76.9941C77.0592 10.084 77.0918 10.11 77.0918 10.1621V12.418C77.0918 12.4701 77.0658 12.4961 77.0137 12.4961H72.9121V15.6016H77.0137C77.0658 15.6016 77.0918 15.6341 77.0918 15.6992L77.1113 17.9648C77.1113 18.0169 77.0788 18.043 77.0137 18.043H72.9121V23.9023C72.9121 23.9674 72.8796 24 72.8145 24ZM76.8086 23.9023L79.2891 10.1621C79.3021 10.11 79.3346 10.084 79.3867 10.084H82.2871C82.3392 10.084 82.3717 10.11 82.3848 10.1621L84.7676 23.9023C84.7741 23.9674 84.748 24 84.6895 24H82.4727C82.4076 24 82.3717 23.9674 82.3652 23.9023L82.1504 22.4375H79.4258L79.2109 23.9023C79.2044 23.9674 79.1719 24 79.1133 24H76.8867C76.8346 24 76.8086 23.9674 76.8086 23.9023ZM80.9297 14.6836L80.8125 13.9414L80.7246 14.6836L79.8262 20.2988H81.75L80.9297 14.6836ZM88.3613 24H86.0957C86.0436 24 86.0176 23.9674 86.0176 23.9023L86.0566 10.1621C86.0566 10.11 86.0827 10.084 86.1348 10.084H90.1777C90.9004 10.084 91.5645 10.2598 92.1699 10.6113C92.7754 10.9629 93.2572 11.4349 93.6152 12.0273C93.9798 12.6198 94.1621 13.2904 94.1621 14.0391C94.1621 14.5273 94.0872 14.9701 93.9375 15.3672C93.7878 15.7643 93.612 16.0996 93.4102 16.373C93.2148 16.6465 93.0358 16.8483 92.873 16.9785C93.5957 17.7793 93.957 18.7201 93.957 19.8008L93.9766 23.9023C93.9766 23.9674 93.944 24 93.8789 24H91.6133C91.5612 24 91.5352 23.9805 91.5352 23.9414V19.8008C91.5352 19.319 91.3659 18.9023 91.0273 18.5508C90.6888 18.1992 90.2721 18.0234 89.7773 18.0234H88.459L88.4395 23.9023C88.4395 23.9674 88.4134 24 88.3613 24ZM90.1777 12.4766H88.459V15.6211H90.1777C90.5879 15.6211 90.9525 15.4681 91.2715 15.1621C91.597 14.8561 91.7598 14.4818 91.7598 14.0391C91.7598 13.6159 91.6035 13.2513 91.291 12.9453C90.9785 12.6328 90.6074 12.4766 90.1777 12.4766ZM98.0098 24H95.7441C95.6921 24 95.666 23.9674 95.666 23.9023L95.7051 10.1621C95.7051 10.11 95.7311 10.084 95.7832 10.084H98.2246C98.2767 10.084 98.3223 10.11 98.3613 10.1621L100.188 12.7988L102.004 10.1621C102.043 10.11 102.092 10.084 102.15 10.084H104.602C104.66 10.084 104.689 10.11 104.689 10.1621L104.729 23.9023C104.729 23.9674 104.702 24 104.65 24H102.385C102.333 24 102.307 23.9674 102.307 23.9023L102.287 13.6973L100.188 16.7441L98.1074 13.6973L98.0879 23.9023C98.0879 23.9674 98.0618 24 98.0098 24ZM108.752 24H106.486C106.434 24 106.408 23.974 106.408 23.9219V21.6562C106.408 21.6042 106.434 21.5781 106.486 21.5781H108.752C108.804 21.5781 108.83 21.6042 108.83 21.6562V23.9219C108.83 23.974 108.804 24 108.752 24Z" fill="white"/>
<path d="M20.166 23.2292C21.0646 22.857 21.8497 22.2605 22.4481 21.5L32.0713 21.5C31.6695 23.115 30.9907 24.6574 30.0563 26.0558C28.463 28.4403 26.1984 30.2988 23.5489 31.3962C20.8994 32.4937 17.9839 32.7809 15.1712 32.2214C12.3585 31.6619 9.77482 30.2809 7.74696 28.253C5.7191 26.2252 4.33811 23.6415 3.77862 20.8288C3.21914 18.0161 3.50628 15.1006 4.60376 12.4511C5.70123 9.80156 7.55973 7.53697 9.94424 5.94369C11.3426 5.00934 12.885 4.33046 14.5 3.92875L14.5 13.5519C13.7395 14.1503 13.143 14.9354 12.7708 15.834L12.7708 15.834C12.3425 16.8682 12.2304 18.0063 12.4488 19.1042C12.6672 20.2021 13.2062 21.2107 13.9978 22.0022L16.4727 19.5273L13.9978 22.0022C14.7894 22.7938 15.7979 23.3328 16.8958 23.5512C17.9937 23.7696 19.1317 23.6576 20.166 23.2292Z" fill="white" stroke="#344042" stroke-width="7"/>
<circle cx="26" cy="10" r="4" fill="#DF923A"/>
</svg>
