<svg width="36" height="36" viewBox="0 0 36 36" fill="none" xmlns="http://www.w3.org/2000/svg">
<path d="M32.0713 21.5C31.6695 23.115 30.9907 24.6574 30.0563 26.0558C28.463 28.4403 26.1984 30.2988 23.5489 31.3962C20.8994 32.4937 17.9839 32.7809 15.1712 32.2214C12.3585 31.6619 9.77482 30.2809 7.74696 28.253C5.7191 26.2252 4.33811 23.6415 3.77862 20.8288C3.21914 18.0161 3.50628 15.1006 4.60376 12.4511C5.70123 9.80156 7.55973 7.53697 9.94424 5.94369C11.3426 5.00934 12.885 4.33046 14.5 3.92875L14.5 13.5519C13.7395 14.1503 13.143 14.9354 12.7708 15.834C12.3425 16.8682 12.2304 18.0063 12.4488 19.1042C12.6672 20.2021 13.2062 21.2107 13.9978 22.0022C14.7893 22.7938 15.7979 23.3328 16.8958 23.5512C17.9937 23.7696 19.1318 23.6575 20.166 23.2292C21.0646 22.857 21.8497 22.2605 22.4481 21.5L32.0713 21.5Z" stroke="#344042" stroke-width="7"/>
<circle cx="26" cy="10" r="4" fill="#DF923A"/>
</svg>
