<svg width="77" height="87" viewBox="0 0 77 87" fill="none" xmlns="http://www.w3.org/2000/svg">
<path d="M12.8203 82.8906L12.3317 83.7631L12.3354 83.7652L12.8203 82.8906ZM3.62109 74.1602L2.76192 74.672L2.76849 74.6827L3.62109 74.1602ZM0.339844 62.0898L-0.660156 62.0868V62.0898H0.339844ZM0.457031 24.0625L1.45703 24.0656V24.0625H0.457031ZM3.79688 12.0508L4.64442 12.5817L4.65107 12.5707L3.79688 12.0508ZM12.9375 3.4375L13.4194 4.31374L13.4261 4.31001L12.9375 3.4375ZM48.8555 12.0508L47.9987 12.5667L48.0054 12.5775L48.8555 12.0508ZM52.1953 24.0625H51.1953L51.1953 24.0656L52.1953 24.0625ZM52.3125 62.0898H53.3125L53.3125 62.0868L52.3125 62.0898ZM49.0312 74.1016L49.8864 74.6201L49.8904 74.6134L49.0312 74.1016ZM39.832 82.8906L39.3434 82.0181L39.3397 82.0202L39.832 82.8906ZM37.7812 62.0898H38.7813L38.7812 62.0868L37.7812 62.0898ZM37.6641 24.0625H36.6641L36.6641 24.0656L37.6641 24.0625ZM34.5 17.207L33.8527 17.9694L33.8598 17.9753L34.5 17.207ZM34.5586 69.1211L33.9339 68.3402L33.9269 68.3459L34.5586 69.1211ZM26.3555 85.1719C21.4253 85.1719 17.0843 84.1114 13.3052 82.0161L12.3354 83.7652C16.447 86.0449 21.1294 87.1719 26.3555 87.1719V85.1719ZM13.3089 82.0181C9.54408 79.9098 6.60627 77.1171 4.47369 73.6376L2.76849 74.6827C5.08905 78.4689 8.28405 81.4964 12.3317 83.7631L13.3089 82.0181ZM4.4802 73.6484C2.38717 70.1351 1.33984 66.2891 1.33984 62.0898H-0.660156C-0.660156 66.6406 0.480015 70.8415 2.76199 74.672L4.4802 73.6484ZM1.33984 62.0929L1.45703 24.0656L-0.542964 24.0594L-0.660151 62.0868L1.33984 62.0929ZM1.45703 24.0625C1.45703 19.785 2.52369 15.9672 4.64435 12.5816L2.9494 11.5199C0.616936 15.2437 -0.542969 19.4337 -0.542969 24.0625H1.45703ZM4.65107 12.5707C6.74227 9.13519 9.65678 6.38317 13.4194 4.31371L12.4556 2.56129C8.40572 4.78871 5.22648 7.77888 2.94268 11.5308L4.65107 12.5707ZM13.4261 4.31001C17.1651 2.21617 21.4656 1.15625 26.3555 1.15625V-0.84375C21.1672 -0.84375 16.5224 0.283829 12.4489 2.56499L13.4261 4.31001ZM26.3555 1.15625C31.3704 1.15625 35.6882 2.2 39.3426 4.25096L40.3214 2.50686C36.3196 0.260942 31.653 -0.84375 26.3555 -0.84375V1.15625ZM39.3426 4.25096C43.0251 6.31763 45.904 9.08775 47.9988 12.5666L49.7121 11.5349C47.432 7.74819 44.2953 4.73706 40.3214 2.50686L39.3426 4.25096ZM48.0054 12.5775C50.1295 16.0059 51.1953 19.8259 51.1953 24.0625H53.1953C53.1953 19.471 52.0345 15.2832 49.7055 11.5241L48.0054 12.5775ZM51.1953 24.0656L51.3125 62.0929L53.3125 62.0868L53.1953 24.0594L51.1953 24.0656ZM51.3125 62.0898C51.3125 66.2483 50.266 70.075 48.1721 73.5898L49.8904 74.6134C52.1715 70.7844 53.3125 66.6032 53.3125 62.0898H51.3125ZM48.1762 73.5831C46.043 77.1009 43.1057 79.9113 39.3434 82.0181L40.3206 83.7631C44.3709 81.495 47.5663 78.446 49.8863 74.6201L48.1762 73.5831ZM39.3397 82.0202C35.6442 84.1106 31.3266 85.1719 26.3555 85.1719V87.1719C31.6187 87.1719 36.2855 86.0456 40.3244 83.761L39.3397 82.0202ZM38.7812 62.0868L38.6641 24.0594L36.6641 24.0656L36.7813 62.0929L38.7812 62.0868ZM38.6641 24.0625C38.6641 20.9615 37.4839 18.3919 35.1402 16.4388L33.8598 17.9753C35.7349 19.5378 36.6641 21.5385 36.6641 24.0625H38.6641ZM35.1472 16.4447C32.8563 14.4996 29.8938 13.5703 26.3555 13.5703V15.5703C29.5359 15.5703 32.0031 16.3988 33.8528 17.9693L35.1472 16.4447ZM26.3555 13.5703C22.7456 13.5703 19.7414 14.4962 17.4465 16.4447L18.741 17.9693C20.5867 16.4022 23.0904 15.5703 26.3555 15.5703V13.5703ZM17.4465 16.4447C15.1434 18.4002 13.9883 20.9684 13.9883 24.0625H15.9883C15.9883 21.5316 16.9034 19.5295 18.741 17.9693L17.4465 16.4447ZM13.9883 24.0625V62.0898H15.9883V24.0625H13.9883ZM13.9883 62.0898C13.9883 65.3212 15.1304 67.9606 17.455 69.8905L18.7325 68.3517C16.9165 66.8441 15.9883 64.796 15.9883 62.0898H13.9883ZM17.455 69.8905C19.7498 71.7956 22.7508 72.6992 26.3555 72.6992V70.6992C23.0852 70.6992 20.5783 69.884 18.7325 68.3517L17.455 69.8905ZM26.3555 72.6992C29.8894 72.6992 32.8637 71.7921 35.1903 69.8963L33.9269 68.3459C32.0348 69.8876 29.5403 70.6992 26.3555 70.6992V72.6992ZM35.1833 69.902C37.5896 67.9769 38.7812 65.3348 38.7812 62.0898H36.7812C36.7812 64.7823 35.8244 66.8278 33.9339 68.3402L35.1833 69.902ZM61.3945 84.4141L60.3945 84.4126V84.4141H61.3945ZM61.5117 1.97266L62.5117 1.97408V1.97266H61.5117ZM75.9258 1.97266H74.9258V1.97408L75.9258 1.97266ZM76.043 84.4141H77.043V84.4126L76.043 84.4141ZM75.5742 84H61.9805V86H75.5742V84ZM61.9805 84C61.9393 84 62.0921 83.9904 62.2481 84.1464C62.4041 84.3024 62.3945 84.4552 62.3945 84.4141H60.3945C60.3945 84.7635 60.4826 85.2093 60.8339 85.5606C61.1852 85.912 61.631 86 61.9805 86V84ZM62.3945 84.4155L62.5117 1.97408L60.5117 1.97124L60.3945 84.4126L62.3945 84.4155ZM62.5117 1.97266C62.5117 1.97488 62.5118 2.01754 62.4897 2.08381C62.466 2.15492 62.4191 2.2451 62.336 2.3282C62.2529 2.4113 62.1627 2.45818 62.0916 2.48189C62.0254 2.50398 61.9827 2.50391 61.9805 2.50391V0.503906C61.6701 0.503906 61.2536 0.582182 60.9218 0.913986C60.59 1.24579 60.5117 1.66226 60.5117 1.97266H62.5117ZM61.9805 2.50391H75.457V0.503906H61.9805V2.50391ZM75.457 2.50391C75.4548 2.50391 75.4121 2.50398 75.3459 2.48189C75.2748 2.45818 75.1846 2.4113 75.1015 2.3282C75.0184 2.2451 74.9715 2.15492 74.9478 2.08381C74.9257 2.01754 74.9258 1.97488 74.9258 1.97266H76.9258C76.9258 1.66226 76.8475 1.24579 76.5157 0.913986C76.1839 0.582182 75.7674 0.503906 75.457 0.503906V2.50391ZM74.9258 1.97408L75.043 84.4155L77.043 84.4126L76.9258 1.97124L74.9258 1.97408ZM75.043 84.4141C75.043 84.5025 75.0209 84.3838 75.1449 84.2288C75.2124 84.1444 75.3007 84.0795 75.3947 84.0403C75.4826 84.0037 75.5499 84 75.5742 84V86C75.9512 86 76.3923 85.8711 76.7066 85.4782C76.9869 85.1279 77.043 84.7162 77.043 84.4141H75.043Z" fill="#2C3638"/>
</svg>
