<svg width="60" height="58" viewBox="0 0 60 58" fill="none" xmlns="http://www.w3.org/2000/svg">
<path fill-rule="evenodd" clip-rule="evenodd" d="M11.895 0.149726C10.7135 0.569083 9.86319 1.68184 9.16566 3.72156C8.67443 5.15797 8.47975 6.70911 8.55931 8.55333C8.64169 10.462 8.91735 11.8105 9.52276 13.2665C9.75464 13.8244 9.9708 14.3618 10.003 14.4607C10.0466 14.5947 9.82446 14.7381 9.13456 15.0214C8.62479 15.2307 7.76332 15.6648 7.22034 15.9859C4.34585 17.6856 2.4808 19.7282 0.982825 22.8174C-0.657263 26.1998 -0.509519 26.4595 3.47534 27.1975C4.53291 27.3934 8.33036 27.3657 9.54822 27.1533L10.5164 26.9844V28.417C10.5164 31.2553 10.905 34.4254 11.5786 37.0819L11.9148 38.4075L11.3311 39.1244C10.121 40.6108 9.38921 42.5992 9.26318 44.7434C8.95267 50.0257 11.9091 53.9043 17.7157 55.8326C23.9219 57.8937 35.7622 57.9139 42.1736 55.8744C44.5198 55.128 46.9807 53.6504 48.2834 52.2058C50.0442 50.2534 50.9002 47.6421 50.7298 44.7434C50.6038 42.5992 49.872 40.6108 48.6619 39.1244L48.0782 38.4075L48.4144 37.0819C49.088 34.4254 49.4767 31.2553 49.4767 28.417V26.9844L50.4448 27.1515C51.7082 27.3697 55.2269 27.395 56.459 27.1948C58.1094 26.9267 59.369 26.5701 59.649 26.2916C60.2358 25.708 60.1283 25.1234 59.0102 22.8174C57.2332 19.1528 54.7043 16.7146 50.9783 15.0735C50.4428 14.8376 49.9856 14.6313 49.9621 14.6149C49.9388 14.5985 50.108 14.1486 50.3385 13.6153C51.8505 10.1137 51.826 5.52807 50.2782 2.37081C49.566 0.917945 48.6243 0.140039 47.4295 0.0174879C45.8629 -0.143345 44.7433 0.811034 44.3545 2.63903C44.0514 4.06388 43.1684 5.43867 41.3862 7.26001C40.1566 8.51656 37.9836 10.3957 37.6793 10.4656C37.5921 10.4857 37.0924 10.3674 36.5689 10.203C35.2612 9.79214 34.7951 9.8051 34.4076 10.2631C34.1994 10.5091 34.1038 10.7594 34.1038 11.0583C34.1038 11.6798 34.5253 12.0199 35.7612 12.3957C36.7109 12.6846 36.7777 12.7259 36.8467 13.069C36.9556 13.6111 36.9359 14.5742 36.8012 15.2862C36.2285 18.3118 32.8555 19.9441 29.2346 18.948C25.6138 17.9518 22.6658 19.4775 21.1693 23.1219C20.6785 24.3172 20.1088 24.9622 19.1129 25.4498C18.4203 25.789 18.2017 25.8361 17.1445 25.8751C15.7556 25.9263 14.9449 25.7836 13.9412 25.3115C13.099 24.9154 13.0911 24.8871 13.4529 23.5573C14.4535 19.8789 16.4142 16.9541 19.312 14.8171C20.5385 13.9127 22.5103 12.9307 24.0439 12.4607C24.9164 12.1932 25.3318 12.0007 25.5665 11.7552C25.992 11.3099 25.9992 10.7521 25.5854 10.2631C25.1979 9.8051 24.7318 9.79214 23.4241 10.203C22.9006 10.3674 22.4009 10.4857 22.3137 10.4656C22.0094 10.3957 19.8364 8.51656 18.6068 7.26001C16.8246 5.43867 15.9416 4.06388 15.6385 2.63903C15.4602 1.80078 15.1202 1.08812 14.723 0.719879C14.0153 0.0637071 12.8176 -0.177776 11.895 0.149726ZM13.0597 2.40816C13.1354 2.45602 13.2782 2.84234 13.3772 3.26672C13.6205 4.31039 14.0351 5.20769 14.7944 6.33446C15.8102 7.84172 17.6342 9.76273 19.4641 11.2524L19.9018 11.6087L18.612 12.4517C17.3172 13.2981 15.3553 15.0489 14.6823 15.9585C14.4887 16.2203 14.2934 16.4357 14.2482 16.4372C14.2032 16.4387 13.8455 16.0329 13.4535 15.5355C12.5476 14.3857 11.651 12.581 11.2548 11.1097C10.9828 10.0993 10.945 9.73238 10.9379 8.03651C10.9315 6.54023 10.9759 5.94148 11.1369 5.35207C11.7368 3.15619 12.4693 2.03467 13.0597 2.40816ZM47.7044 2.6549C48.0465 3.01917 48.5246 4.13881 48.8561 5.35207C49.0171 5.94148 49.0615 6.54023 49.0551 8.03651C49.0481 9.72141 49.0094 10.101 48.7461 11.0711C48.2557 12.8788 47.3016 14.6855 46.0957 16.0899L45.7449 16.4984L45.4812 16.1482C44.7514 15.1789 42.6512 13.282 41.4081 12.4695L40.0912 11.6087L40.5289 11.2524C42.329 9.78701 44.207 7.80962 45.1996 6.33446C45.9584 5.20676 46.3727 4.30922 46.6158 3.26672C46.8608 2.21593 47.1431 2.05732 47.7044 2.6549ZM29.4227 9.3666C28.4054 9.92741 28.831 11.538 29.9965 11.538C30.5911 11.538 31.17 10.9678 31.17 10.3821C31.17 9.50584 30.1964 8.94001 29.4227 9.3666ZM41.416 15.3645C46.4488 19.4372 48.2652 26.7214 46.4137 35.4062C46.2769 36.0481 46.1294 36.6119 46.0859 36.6589C46.0425 36.7061 45.6097 36.5375 45.1241 36.2844C41.5938 34.4445 36.3925 33.4804 29.9965 33.4804C23.5897 33.4804 18.2778 34.468 14.8692 36.2931C14.3912 36.5491 13.9628 36.7168 13.9173 36.6659C13.795 36.5293 13.3528 34.3127 13.1538 32.8385C13.0584 32.1323 12.9457 30.6243 12.9035 29.4872L12.8268 27.4199L13.4465 27.654C14.505 28.054 15.5329 28.237 16.7301 28.2384C18.8374 28.2408 20.4169 27.6756 21.7385 26.4461C22.4181 25.8137 22.5952 25.5493 23.259 24.1762C23.7031 23.2574 24.1992 22.4183 24.4725 22.1234C25.5214 20.9917 26.8987 20.7324 28.9825 21.2745C31.6909 21.9791 34.639 21.4079 36.7041 19.7784C38.098 18.6786 39.0569 16.7973 39.22 14.8419L39.2998 13.8858L39.9583 14.3018C40.3204 14.5305 40.9764 15.0087 41.416 15.3645ZM11.7366 17.1362C11.9235 17.3876 12.2767 17.7878 12.5215 18.0256L12.9664 18.4577L12.5126 19.3553C11.9477 20.4727 11.302 22.3014 11.0334 23.5447C10.8046 24.6038 10.89 24.5351 9.49905 24.7784C7.98922 25.0424 6.23026 25.1137 4.79225 24.9693C2.79248 24.7684 2.73968 24.7528 2.82839 24.3895C2.96405 23.8328 4.08216 21.9501 4.82522 21.0269C6.1034 19.4386 7.80534 18.18 10.0141 17.1893C10.6453 16.9062 11.2146 16.6755 11.2791 16.6767C11.3437 16.678 11.5495 16.8847 11.7366 17.1362ZM50.2681 17.3198C52.464 18.3405 54.3906 19.8802 55.6148 21.593C56.1792 22.3828 57.2218 24.3069 57.2218 24.5589C57.2218 24.7278 56.9303 24.7891 55.278 24.9676C53.5509 25.1541 51.07 24.9964 49.5849 24.6056C49.172 24.497 49.1616 24.4793 48.9602 23.5472C48.691 22.3017 48.0457 20.4736 47.4804 19.3553L47.0266 18.4577L47.4715 18.0256C47.7163 17.7878 48.0695 17.386 48.2564 17.1325C48.6627 16.5818 48.6844 16.5838 50.2681 17.3198ZM22.1322 29.6083C21.6641 29.852 21.1942 30.6518 21.1971 31.2C21.1999 31.7071 21.6551 32.428 22.1322 32.6804C23.0033 33.1415 24.0023 32.8306 24.4517 31.9589C24.7721 31.3375 24.7795 31.0052 24.4873 30.3652C24.0961 29.5084 23.0004 29.1562 22.1322 29.6083ZM36.2142 29.6083C35.7461 29.852 35.2762 30.6518 35.2791 31.2C35.282 31.7071 35.7372 32.428 36.2142 32.6804C37.0853 33.1415 38.0843 32.8306 38.5337 31.9589C38.8541 31.3375 38.8615 31.0052 38.5693 30.3652C38.1782 29.5084 37.0825 29.1562 36.2142 29.6083ZM35.7467 36.1059C41.2986 36.7615 45.0847 38.3073 46.8459 40.6375C47.9938 42.1563 48.3594 43.3171 48.3594 45.4437C48.3594 47.5702 47.9938 48.7311 46.8459 50.2499C44.4887 53.3688 38.5409 55.0704 29.9965 55.0704C20.2117 55.0704 14.1442 52.9333 12.2749 48.8284C11.7693 47.7185 11.631 46.9757 11.6337 45.3853C11.6371 43.3177 12.0132 42.1379 13.1471 40.6375C15.0978 38.0564 19.6364 36.408 26.1009 35.9325C28.141 35.7824 33.8806 35.8855 35.7467 36.1059ZM26.0447 40.6545C24.8811 41.155 25.2055 42.8176 26.4667 42.8176C27.5909 42.8176 28.0824 41.3748 27.1562 40.7934C26.7195 40.5194 26.4403 40.4845 26.0447 40.6545ZM33.0858 40.6545C31.9221 41.155 32.2465 42.8176 33.5077 42.8176C34.632 42.8176 35.1234 41.3748 34.1972 40.7934C33.7605 40.5194 33.4813 40.4845 33.0858 40.6545Z" fill="#DF923A"/>
</svg>
