<svg width="58" height="67" viewBox="0 0 58 67" fill="none" xmlns="http://www.w3.org/2000/svg">
<path fill-rule="evenodd" clip-rule="evenodd" d="M47.1083 0.0869248C46.4764 0.355437 44.2552 2.34768 43.0236 3.75051C42.1362 4.76131 41.5432 5.78751 41.3124 6.71204C41.1693 7.28567 41.0113 7.48175 40.9115 7.21C40.8037 6.91627 38.7776 4.69677 38.4689 4.53419C37.6481 4.10167 36.5353 4.4571 36.1524 5.27402C35.8766 5.86214 35.4521 8.14087 35.2845 9.93302C35.1405 11.4714 35.2043 12.4848 35.4981 13.3286C35.5948 13.6064 35.6589 13.848 35.6406 13.8654C35.6221 13.8828 35.2895 13.5127 34.9013 13.0429C34.1196 12.0969 32.2939 10.4293 30.7545 9.25514C29.8613 8.57378 29.6866 8.49048 29.1504 8.491C28.4629 8.49151 27.8483 8.81137 27.4969 9.35137C27.3121 9.63554 27.2564 10.0374 27.2209 11.3432L27.1765 12.979L27.527 13.2568C27.9781 13.6145 28.258 13.6076 28.6953 13.2284C29.0262 12.9416 29.0522 12.8429 29.1024 11.6852L29.1562 10.4484L30.2641 11.3294C31.6999 12.471 33.6788 14.4587 34.1981 15.2809C34.655 16.0043 34.9881 16.9304 35.1058 17.8043C35.2641 18.9798 34.6962 20.073 33.6874 20.5347C32.9783 20.8594 32.5028 20.837 31.7168 20.4422C30.6485 19.9057 29.8295 18.7159 29.4327 17.1239C29.1954 16.1718 28.9762 15.7852 28.6069 15.667C28.2141 15.5414 27.6303 15.8316 27.4645 16.2349C27.2763 16.6928 27.5839 18.0863 28.1079 19.1495C28.3151 19.5698 28.4846 19.9332 28.4846 19.9567C28.4846 19.9804 28.1525 19.7495 27.7467 19.4437C26.6132 18.5898 25.2623 17.7871 23.2229 16.7558C21.0229 15.6432 20.2661 15.4917 19.5143 16.0131C18.9773 16.3856 18.6025 17.0683 18.6041 17.6716C18.6055 18.2848 19.2998 21.7287 19.7125 23.1707C19.8957 23.8109 20.2517 24.8466 20.5037 25.4722L20.9616 26.6095L20.5132 27.0614L20.0649 27.5133L18.5803 26.935C16.8313 26.2538 13.7078 25.3048 13.2143 25.3048C13.024 25.3048 12.6168 25.4388 12.3094 25.6027C11.6932 25.9311 11.1596 26.7606 11.1596 27.3902C11.1596 27.59 11.3906 28.4339 11.6729 29.2656C11.9552 30.0973 12.1862 30.8537 12.1862 30.9464C12.1862 31.0393 11.9432 31.1812 11.646 31.2618C10.7239 31.512 8.83276 32.4195 7.75874 33.127C6.79688 33.7606 6.67932 33.8041 5.8979 33.8143C2.40184 33.8601 0.376354 37.7688 2.25028 40.8529L2.69906 41.5916L2.36206 42.2618C1.45667 44.0625 0.122896 48.1881 0.122896 49.1879C0.122896 49.3614 0.271121 49.6528 0.4522 49.8353C0.715797 50.101 0.860685 50.1513 1.17793 50.0874C1.763 49.9694 1.86887 49.8304 2.10205 48.8738C2.52363 47.1446 2.97305 45.724 3.45058 44.6116C4.17233 42.9298 4.25754 42.7659 4.4109 42.7659C4.4879 42.7659 5.14882 42.9382 5.87968 43.1486C8.10485 43.7896 13.6829 44.9644 14.503 44.9647C14.5421 44.9647 14.5292 45.2993 14.4746 45.7084C14.4199 46.1175 14.3363 47.8816 14.2887 49.6287C14.1879 53.334 14.2651 53.889 14.9948 54.7039C15.7991 55.6022 15.4844 55.5707 23.6165 55.5707C31.6226 55.5707 31.38 55.5921 32.1485 54.8175C32.8682 54.0922 32.9067 53.9085 32.9539 50.9695C32.9781 49.4704 32.9397 47.55 32.8686 46.702C32.7976 45.854 32.7592 45.1403 32.7834 45.116C32.8075 45.0917 33.626 44.9355 34.6021 44.769C36.5833 44.431 39.1641 43.8331 40.7857 43.3364C41.3753 43.1559 41.8722 43.0264 41.8898 43.0486C41.9074 43.071 42.1697 43.5212 42.4726 44.0492C43.2044 45.3248 43.8163 46.6649 44.4536 48.3881C44.8629 49.4946 45.0537 49.8494 45.321 50.0006C45.7638 50.251 46.3045 50.075 46.5728 49.5932C46.7531 49.2694 46.7369 49.1542 46.3385 47.9291C46.103 47.2051 45.4184 45.6281 44.8172 44.4246L43.7241 42.2365L44.248 41.7843C44.5586 41.5165 44.9444 40.9798 45.1946 40.4674C45.5827 39.673 45.6171 39.5022 45.6171 38.371C45.6171 37.2721 45.5768 37.0568 45.2425 36.3705C44.6577 35.1701 43.737 34.3714 42.4107 33.914C42.2127 33.8457 42.4125 33.7123 43.309 33.3143C45.065 32.5346 45.6699 31.6843 45.3158 30.493C45.1189 29.8309 44.6916 29.4626 42.9863 28.4856C42.1746 28.0206 41.4238 27.5873 41.3179 27.5229C41.173 27.4347 41.2684 27.3689 41.7029 27.2574C42.9546 26.9361 44.9354 26.1336 46.7323 25.2199C48.2423 24.452 48.6716 24.173 48.8891 23.8182C49.3136 23.1259 49.3401 22.6127 48.9857 21.9439C48.731 21.4629 48.5099 21.2734 47.6908 20.8336L46.7032 20.3035L47.7437 20.0228C49.5784 19.5279 52.6681 18.127 53.1754 17.5601C53.3158 17.4032 53.4439 17.0234 53.4784 16.6617C53.5616 15.7898 53.2852 15.3097 52.4149 14.8147C51.6354 14.3714 51.5578 14.2257 52.0365 14.1045C52.5343 13.9787 53.7396 13.1396 54.6789 12.2652C55.5012 11.4996 57.52 9.14016 57.8364 8.57494C58.0936 8.11526 58.0389 7.15076 57.7333 6.75925C57.1656 6.03196 56.8871 5.97221 54.0871 5.97725C51.8088 5.98126 50.8579 6.06779 49.8352 6.36398C49.5639 6.44249 49.5613 6.42283 49.5074 3.87766C49.4489 1.106 49.3584 0.702201 48.6993 0.266838C48.3056 0.00686257 47.5087 -0.0832882 47.1083 0.0869248ZM47.4741 7.15089C47.3979 7.52107 47.2472 7.89784 47.1393 7.98812C46.8318 8.24525 46.2177 9.19345 46.1297 9.54707C45.9539 10.2531 44.7104 10.5317 43.9155 10.0432C42.8848 9.40984 42.7029 8.0286 43.4481 6.49397C43.8538 5.65842 45.2026 4.13427 46.6438 2.88263L47.5421 2.10245L47.5774 4.29025C47.5972 5.51033 47.5515 6.77567 47.4741 7.15089ZM39.7973 8.91731C40.8323 10.3216 41.2955 11.3503 41.3867 12.4482L41.4609 13.3408L40.4644 14.1803C39.3769 15.0966 39.2347 15.1288 38.4751 14.6311C37.8909 14.2482 37.3814 13.2386 37.1998 12.104C37.0525 11.1828 37.1869 9.47981 37.5556 7.59414L37.7689 6.5038L38.4113 7.20612C38.7647 7.59233 39.3884 8.36243 39.7973 8.91731ZM55.6704 7.95733C55.8973 8.10233 54.2031 10.1504 53.0163 11.1659C51.8127 12.1956 50.9852 12.5583 49.8307 12.5619C49.0247 12.5643 48.8684 12.5248 48.5672 12.2414C47.4253 11.1672 47.6937 9.76074 49.226 8.78822C49.96 8.32221 50.4803 8.14113 51.5265 7.98747C52.5354 7.83938 55.4523 7.81803 55.6704 7.95733ZM46.1946 12.2414C46.1946 12.3125 46.1334 12.3707 46.0587 12.3707C45.984 12.3707 45.9585 12.3125 46.0021 12.2414C46.0457 12.1702 46.1068 12.112 46.138 12.112C46.1692 12.112 46.1946 12.1702 46.1946 12.2414ZM47.6063 14.6964C48.8931 15.1372 51.3913 16.3694 51.2552 16.4961C51.0599 16.6776 48.8216 17.6546 47.7581 18.0224C46.9806 18.2913 46.5278 18.3637 45.6171 18.3648C44.2724 18.3663 43.7389 18.1766 43.1332 17.4812C42.8081 17.1081 42.7296 16.9044 42.7296 16.4341C42.7296 15.4414 43.2563 14.7668 44.2744 14.4552C44.9532 14.2475 46.6555 14.3707 47.6063 14.6964ZM37.4899 16.93C37.1122 17.3413 36.9563 17.3787 36.9504 17.0593C36.9481 16.9348 36.8446 16.5368 36.7204 16.1748L36.4946 15.5166L37.1556 16.0454L37.8164 16.5743L37.4899 16.93ZM40.874 17.1887C40.9234 17.4198 41.0423 17.7639 41.1381 17.9529L41.3124 18.2969L40.1605 18.2763C39.5269 18.265 39.0228 18.2162 39.0403 18.1678C39.0935 18.0207 40.555 16.7683 40.6736 16.7683C40.7344 16.7683 40.8246 16.9575 40.874 17.1887ZM21.757 18.1885C23.986 19.2263 26.5919 20.8636 27.6205 21.8725C29.0638 23.2881 29.8114 25.3863 29.3398 26.6971L29.188 27.1191L27.9959 26.2353C27.3402 25.7491 26.5035 25.2411 26.1363 25.1063C25.2239 24.7712 23.5807 24.7635 22.9813 25.0915C22.4448 25.3853 22.4849 25.4428 21.8251 23.4294C21.2722 21.7425 20.395 17.6737 20.584 17.6737C20.6211 17.6737 21.149 17.9054 21.757 18.1885ZM42.529 20.7077C43.2728 20.9531 44.6336 21.5151 45.5528 21.9566L47.2241 22.759L46.4206 23.2109C44.5662 24.2535 41.8102 25.3123 40.4826 25.4921C39.1238 25.6762 37.3488 25.1252 36.7564 24.3354C35.8508 23.128 36.2071 21.4347 37.5108 20.75C38.8954 20.0228 40.4161 20.01 42.529 20.7077ZM31.8959 22.5887C32.3741 22.5887 32.3553 22.7646 31.7939 23.5352L31.2631 24.2639L30.9196 23.4432C30.7307 22.992 30.4809 22.4857 30.3645 22.3182C30.0325 21.8406 30.1029 21.8271 30.8769 22.2207C31.2749 22.4231 31.7336 22.5887 31.8959 22.5887ZM34.8825 24.9785L35.1493 25.4342L34.4798 25.4399C34.1116 25.443 33.5649 25.4933 33.265 25.5517C32.9651 25.6102 32.7196 25.6334 32.7196 25.6032C32.7196 25.573 33.0757 25.0768 33.5109 24.5005L34.3023 23.4528L34.459 23.9879C34.5453 24.2821 34.7358 24.728 34.8825 24.9785ZM25.3491 26.9225C25.723 27.0376 26.4287 27.4615 27.0729 27.958C28.5888 29.1262 29.6989 29.6711 32.5913 30.6672C35.7803 31.7654 37.2149 32.4584 38.1559 33.3553C38.554 33.7346 38.8796 34.108 38.8796 34.1853C38.8796 34.2624 38.201 34.5062 37.3717 34.7269C29.2796 36.8816 20.4359 36.9683 11.131 34.9842C10.0028 34.7436 9.2732 34.5297 9.32017 34.4531C9.46827 34.2115 11.4804 33.3447 12.6354 33.0248C13.2707 32.8489 14.3712 32.6148 15.0812 32.5046C17.5227 32.1255 18.7798 31.4086 21.3151 28.9491C22.9834 27.3308 23.8121 26.7319 24.3866 26.7291C24.568 26.7282 25.0011 26.8153 25.3491 26.9225ZM15.7871 28.02C17.0642 28.4463 18.1911 28.8414 18.2916 28.8981C18.4254 28.9736 18.2599 29.1407 17.6722 29.5233C16.6761 30.1719 15.9355 30.4525 14.9444 30.5569L14.1752 30.638L13.6301 29.0581C13.1159 27.5673 13.0655 27.2449 13.3468 27.2449C13.4121 27.2449 14.5102 27.5938 15.7871 28.02ZM37.1471 27.8228C39.1224 28.5041 43.663 30.8981 43.4114 31.1257C43.3541 31.1776 42.5941 31.5256 41.7226 31.8992L40.1379 32.5781L39.5409 31.9933C39.2125 31.6717 38.5779 31.1728 38.1308 30.8847C37.2351 30.3076 34.7256 29.2725 32.88 28.7189C32.2272 28.5231 31.6929 28.3277 31.6929 28.2845C31.6929 28.2414 31.86 28.1066 32.0641 27.9852C33.2461 27.2814 35.3794 27.2133 37.1471 27.8228ZM23.923 28.8559C23.4099 29.3729 23.5146 30.0976 24.15 30.4288C25.1407 30.9451 26.0143 29.6586 25.2179 28.8559C25.0446 28.6813 24.7533 28.5384 24.5704 28.5384C24.3875 28.5384 24.0962 28.6813 23.923 28.8559ZM29.7038 31.1521C29.3173 31.3755 29.1349 31.6671 29.1304 32.0687C29.1252 32.5262 29.6437 33.0653 30.0888 33.0653C30.5098 33.0653 31.0513 32.5288 31.0513 32.1117C31.0513 31.618 30.9231 31.3906 30.5287 31.1851C30.0984 30.9608 30.0388 30.9583 29.7038 31.1521ZM26.478 31.403C26.1766 31.5532 25.9179 32.0279 25.9179 32.4306C25.9179 32.7965 26.4862 33.324 26.8804 33.324C27.332 33.324 27.8429 32.7855 27.8429 32.3094C27.8429 31.5934 27.094 31.096 26.478 31.403ZM21.411 31.6435C21.2968 31.7107 21.131 31.9417 21.0425 32.1568C20.7158 32.9517 21.4517 33.7632 22.229 33.4654C22.9109 33.2041 23.0674 32.2312 22.4998 31.7813C22.1384 31.4947 21.7475 31.4453 21.411 31.6435ZM7.18124 35.9787C9.53577 36.6861 13.4089 37.4826 16.2287 37.8393C24.0978 38.835 32.3587 38.2915 38.8154 36.3533C41.2852 35.612 41.5655 35.5847 42.3943 36.0061C43.6163 36.6274 44.1214 38.3025 43.4859 39.6256C43.1363 40.3533 42.552 40.744 41.1195 41.208C32.7904 43.9054 22.1983 44.4225 12.1862 42.6205C9.36752 42.1132 5.65047 41.1672 4.86264 40.7566C3.67221 40.1361 3.13373 38.5217 3.69891 37.2677C3.9747 36.6559 4.73199 35.9465 5.22646 35.8367C5.41935 35.7939 5.63482 35.7418 5.7054 35.7209C5.88648 35.6674 6.50453 35.7754 7.18124 35.9787ZM19.5958 45.4962C21.3921 45.6427 28.2369 45.5822 29.9734 45.4046C30.6596 45.3343 30.7683 45.3541 30.8532 45.565C30.9066 45.6971 30.9812 47.4182 31.0189 49.3893C31.0803 52.5894 31.0647 53.0084 30.874 53.3019L30.6604 53.6305H23.6079H16.5555L16.3423 53.3027C16.1524 53.0105 16.138 52.6322 16.2104 49.8428C16.2551 48.1202 16.3285 46.3704 16.3734 45.9543L16.4551 45.1979L17.1119 45.2725C17.4732 45.3135 18.591 45.4143 19.5958 45.4962ZM0.315781 52.4892C-0.0290511 52.7627 -0.0370076 52.7975 0.0388375 53.7018C0.121099 54.6823 0.616081 56.445 1.05408 57.3168C1.19705 57.6013 1.54021 58.1706 1.81677 58.5819L2.31945 59.3294L1.78071 59.9399C0.333619 61.5795 0.162294 63.2755 1.32512 64.4476C1.99746 65.1251 2.66364 65.3196 4.03707 65.2397C5.24969 65.1692 6.25942 64.8305 7.39324 64.114L8.21329 63.5958L8.88435 63.8631C12.3351 65.2378 16.8722 65.979 22.7737 66.1323C28.8743 66.2906 34.3881 65.6607 38.2775 64.3608L39.4876 63.9564L40.3721 64.4234C41.4859 65.0114 42.4347 65.268 43.4996 65.2691C44.6497 65.2701 45.2312 65.0784 45.8659 64.4887C46.406 63.987 46.7079 63.3245 46.7079 62.6416C46.7079 62.0887 46.3246 61.1092 45.8408 60.4263L45.3865 59.7849L45.6204 59.3915C46.7702 57.4576 47.1973 56.159 47.3114 54.2505C47.3728 53.2216 47.3488 52.9373 47.1789 52.6759C46.912 52.2653 46.5249 52.1457 46.0735 52.3342C45.604 52.5301 45.4246 52.9559 45.4246 53.8746C45.4246 55.4235 44.7524 57.3037 43.6839 58.7434C42.9125 59.7829 42.9281 60.0541 43.8161 61.0207C44.2371 61.479 44.5807 61.9969 44.6755 62.3159C44.8232 62.8127 44.8141 62.8634 44.5374 63.0894C43.8678 63.6359 42.0245 63.2837 40.6815 62.3527C39.9362 61.8358 39.5888 61.8072 38.6229 62.1832C31.2182 65.0656 15.8842 64.8879 9.04695 61.8403C8.03632 61.39 7.73448 61.4237 6.8939 62.0817C5.88032 62.8749 4.98404 63.2416 3.90629 63.3041C3.15259 63.3478 2.9547 63.3148 2.69393 63.1019C2.39581 62.8588 2.38952 62.823 2.5502 62.2827C2.67571 61.8605 2.95509 61.4888 3.65656 60.8107C4.8996 59.6092 4.91512 59.4827 3.96571 58.2905C2.89901 56.9509 2.20985 55.3765 1.91122 53.597C1.79752 52.9196 1.69139 52.6648 1.43973 52.4653C1.02264 52.1346 0.755965 52.1403 0.315781 52.4892Z" fill="#DF923A"/>
</svg>
