<svg width="64" height="49" viewBox="0 0 64 49" fill="none" xmlns="http://www.w3.org/2000/svg">
<path fill-rule="evenodd" clip-rule="evenodd" d="M14.5101 0.124287C13.7256 0.312013 12.799 0.962731 12.3873 1.61484C11.225 3.45597 11.7278 5.54944 13.6355 6.81363L13.9711 7.0361L13.4436 9.38427C13.1534 10.6758 12.7621 12.3955 12.5741 13.2058L12.2321 14.6789L11.2389 14.8511C9.20316 15.2038 6.5499 16.2545 4.64395 17.4629C3.11573 18.4317 2.46649 19.3161 2.33468 20.6086C2.24076 21.5303 2.4575 22.3066 3.05944 23.2052C3.51034 23.8785 3.52956 23.9498 3.33302 24.2228C3.2167 24.3841 2.8741 24.8602 2.57147 25.2805C0.377132 28.3289 -0.512082 32.7185 0.291516 36.5357C1.73661 43.3996 7.64451 48.2078 14.6335 48.2078C19.7318 48.2078 24.5616 45.4071 27.1537 40.9475L27.7796 39.8706H32.4074C37.016 39.8706 37.0355 39.8719 37.1122 40.1671C37.1547 40.3303 37.4507 41.0025 37.7699 41.6609C38.8909 43.9732 40.5994 45.6932 42.8875 46.8128C44.8266 47.7618 45.8225 47.9914 47.9359 47.977C49.3823 47.9673 49.864 47.9053 50.883 47.5985C54.3586 46.552 56.9259 44.2276 58.2639 40.9161L58.7116 39.8078L59.5824 39.5118C60.7071 39.1297 61.2593 38.7847 62.1288 37.9212C62.9618 37.0939 63.4754 36.2014 63.7682 35.0719C64.074 33.8924 64.0786 24.7454 63.7739 23.5704C63.1634 21.2156 61.4459 19.513 59.1272 18.9638C58.4058 18.7931 57.0851 18.7535 52.0507 18.7518L45.8612 18.7497V16.3806C45.8612 14.4851 45.9055 13.9226 46.0828 13.5668C46.2048 13.3222 46.8208 12.5906 47.452 11.941C48.0831 11.2914 48.6401 10.6223 48.6897 10.4542C48.7954 10.0965 48.4646 9.3744 48.1372 9.24823C47.4657 8.98936 47.1842 9.14777 45.7605 10.5862C43.7644 12.6031 43.7289 12.6977 43.6724 16.1443L43.6275 18.8887H41.9171C40.9716 18.8887 40.1699 18.8289 40.1246 18.755C40.0793 18.6815 39.5478 16.1335 38.9434 13.0927C38.3389 10.0519 37.812 7.42753 37.7723 7.26078C37.7193 7.03763 37.7774 6.933 37.9925 6.86449C38.153 6.81322 38.5312 6.5474 38.8326 6.27394C40.3948 4.85592 40.4428 2.59363 38.9427 1.08654C37.8041 -0.0573241 38.3636 -0.0109145 25.8844 0.00520412C19.8696 0.0131245 14.751 0.0666218 14.5101 0.124287ZM37.4355 2.73758C37.6575 2.98714 37.8391 3.34981 37.8391 3.54337C37.8391 4.00414 37.4907 4.66986 37.1551 4.85022C36.979 4.94499 33.1734 4.99335 25.9028 4.99335H14.9165L14.5416 4.69724C13.7545 4.07514 13.8077 3.00006 14.6513 2.48052C15.0729 2.22095 15.4306 2.21359 26.0592 2.24819L37.032 2.28376L37.4355 2.73758ZM35.5559 7.52924C35.766 8.42313 37.9774 19.4887 37.9774 19.6461C37.9774 19.7475 37.8564 19.9782 37.7085 20.1586L37.4396 20.4866L35.8413 18.8909C34.9622 18.0133 34.2429 17.2378 34.2429 17.1675C34.2429 17.0971 34.5541 16.709 34.9345 16.305C35.4721 15.734 35.6261 15.47 35.6261 15.1194C35.6261 14.4918 35.1608 14.0253 34.5346 14.0253C34.086 14.0253 33.8555 14.2154 31.7926 16.288C29.8024 18.2873 29.5403 18.6034 29.5403 19.0039C29.5403 19.6007 30.0662 20.1392 30.6487 20.1392C30.974 20.1392 31.2544 19.9719 31.8036 19.45L32.529 18.761L34.4198 20.6659L36.3107 22.5709L35.588 23.8558L34.8653 25.1409L33.1738 25.1411L31.4823 25.1416L31.184 24.5541C30.398 23.0061 28.8144 20.9407 27.3872 19.6016C24.2222 16.6321 20.0986 14.8464 15.879 14.6178C14.6603 14.5518 14.4676 14.5091 14.5245 14.3178C14.561 14.1951 14.9364 12.6254 15.3586 10.8294C15.7811 9.03341 16.1552 7.48589 16.19 7.39029C16.24 7.25356 18.3025 7.2166 25.8681 7.2166H35.4825L35.5559 7.52924ZM17.4538 17.0195C23.9822 18.1632 29.1204 22.9769 30.7821 29.5061C30.9359 30.1105 31.0617 30.7578 31.0617 30.9443C31.0617 31.436 30.2287 32.2282 29.7114 32.2282C29.3072 32.2282 29.2992 32.2133 29.1299 31.1513C27.9888 23.9963 21.932 18.7497 14.8129 18.7497C11.6389 18.7497 8.93221 19.6133 6.27715 21.4732L5.21325 22.2184L4.9286 21.8549C4.64685 21.495 4.54948 20.6873 4.73053 20.2132C4.77825 20.0884 5.15156 19.7714 5.56027 19.5088C7.395 18.3298 9.72405 17.4008 11.7805 17.0277C13.2603 16.7592 15.9459 16.7553 17.4538 17.0195ZM13.5737 22.4745C13.6765 23.0959 14.0828 23.4741 14.6476 23.4741C15.3705 23.4741 15.6855 23.0318 15.7361 21.9447L15.7781 21.0424L16.2622 21.0843C17.0474 21.1522 18.7587 21.6242 19.6405 22.0162C20.528 22.4107 22.2544 23.4875 22.4132 23.7455C22.4696 23.8373 22.2421 24.194 21.8764 24.5867C21.0251 25.5012 21.0293 26.1872 21.8894 26.6474C22.3935 26.9171 22.6104 26.8383 23.3822 26.1049L24.1231 25.4008L24.678 26.1397C25.7331 27.5448 26.9123 30.5411 26.9123 31.8173C26.9123 32.1854 26.887 32.1975 25.9948 32.2544C25.245 32.3025 25.0302 32.3717 24.8191 32.6335C24.4713 33.0651 24.4902 33.7325 24.8617 34.1299C25.1147 34.4003 25.3017 34.4514 26.0374 34.4514H26.9123V34.9116C26.9123 35.6161 26.3923 37.4543 25.8744 38.5804C25.4194 39.57 24.3338 41.2601 24.1531 41.2601C24.1031 41.2601 23.8549 41.0454 23.6018 40.7831C22.7143 39.8631 21.8343 39.8468 21.4071 40.7425C21.1681 41.2436 21.2901 41.5854 21.9746 42.3313L22.5379 42.9454L22.1317 43.2733C20.6394 44.4784 17.5759 45.7066 16.0621 45.7066C15.7198 45.7066 15.709 45.6791 15.709 44.8034C15.709 43.699 15.4452 43.3444 14.6239 43.3444C13.8588 43.3444 13.5909 43.7006 13.5205 44.8114C13.4671 45.6551 13.4441 45.7066 13.1225 45.7066C12.512 45.7066 10.5459 45.1382 9.53733 44.6699C8.56886 44.2204 6.85696 43.1364 6.85696 42.9727C6.85696 42.9267 7.10592 42.6178 7.41021 42.2862C8.19597 41.4298 8.17536 40.5609 7.36097 40.2169C6.82017 39.9884 6.40426 40.1392 5.70633 40.8169L5.17812 41.3296L4.84852 40.9475C3.74976 39.6736 2.56137 36.785 2.40466 35.0072L2.36179 34.5209L3.25985 34.4787C4.29291 34.43 4.78226 34.1045 4.78226 33.4658C4.78226 32.5985 4.27327 32.2282 3.08115 32.2282H2.33454L2.45805 31.4292C2.72181 29.7234 3.3694 28.0767 4.38406 26.5314L5.10854 25.4282L5.7694 26.0491C6.52985 26.7637 7.19804 26.8832 7.68684 26.3921C8.17564 25.9011 8.05669 25.2298 7.34534 24.4658L6.72736 23.8019L7.81796 23.0791C9.07246 22.2476 10.4454 21.6449 11.7939 21.3335C13.3875 20.9657 13.4216 20.9696 13.4624 21.5288C13.4819 21.7963 13.5319 22.2219 13.5737 22.4745ZM59.2846 21.3351C60.1676 21.7454 60.8923 22.4261 61.3266 23.2532L61.6981 23.9605L61.739 29.0812C61.7853 34.8547 61.7581 35.0614 60.8095 36.1426C60.1762 36.8642 59.1678 37.4838 59.0802 37.2051C59.0485 37.1045 58.9918 36.3655 58.9544 35.5631C58.726 30.6877 55.2361 26.5818 50.3162 25.4002C49.3198 25.1607 48.8128 25.122 47.3827 25.1753C45.9091 25.2302 45.4597 25.3054 44.3398 25.684C42.5077 26.3036 41.2976 27.0616 39.9016 28.4642C38.5049 29.8672 37.7504 31.0832 37.1349 32.9229C36.7637 34.0328 36.6825 34.5141 36.6251 35.9452L36.5569 37.6474H32.6164H28.6758L28.775 37.1958C28.8295 36.9473 28.9493 36.2439 29.0413 35.6325L29.2083 34.5209L30.0144 34.4195C31.879 34.1848 33.1364 32.7533 33.1364 30.8653C33.1364 30.1888 32.8512 28.7239 32.5023 27.608C32.433 27.3864 32.5626 27.3648 33.9615 27.3648C34.9478 27.3648 35.6558 27.2971 35.9417 27.1754C36.3187 27.0149 36.6478 26.5255 38.093 23.9757L39.7991 20.9656L49.2272 21.004C58.4802 21.0417 58.6668 21.0479 59.2846 21.3351ZM12.9306 26.8708C9.43622 27.8392 7.26664 31.5665 8.16983 35.0499C8.98656 38.2 12.0217 40.3907 15.1633 40.0972C19.4076 39.7011 22.1919 35.762 21.1263 31.6611C20.5253 29.3486 18.6542 27.4921 16.3047 26.8774C15.3598 26.63 13.81 26.6271 12.9306 26.8708ZM49.8032 27.851C51.3877 28.1841 52.9296 29.0385 54.1611 30.266C55.3538 31.4546 56.0459 32.5942 56.5346 34.1735C57.0183 35.7362 56.9862 37.9901 56.4585 39.5218C55.29 42.914 52.6622 45.1432 49.1665 45.7073C47.9571 45.9026 46.2583 45.7378 45.0011 45.3033C41.8778 44.2237 39.6778 41.6709 39.0078 38.3488C38.232 34.5027 40.2759 30.3969 43.852 28.6172C45.7362 27.6795 47.7522 27.42 49.8032 27.851ZM16.5712 29.2922C17.4645 29.7267 18.2974 30.5827 18.7309 31.5119C19.2181 32.5565 19.2475 34.1839 18.7967 35.1706C18.3754 36.0929 17.4678 37.023 16.5587 37.4642C15.5282 37.9643 13.9124 38.0022 12.9184 37.5497C12.0506 37.1546 11.0629 36.2157 10.6149 35.3602C10.2974 34.7538 10.248 34.492 10.2469 33.4093C10.2458 32.3616 10.3007 32.046 10.5849 31.4639C11.0411 30.5296 12.0816 29.5358 12.9762 29.1802C13.9632 28.788 15.6418 28.8402 16.5712 29.2922ZM46.2895 31.8738C44.8214 32.3528 43.3746 33.8548 42.965 35.325C42.8623 35.6931 42.8105 36.4157 42.8414 37.0465C42.9359 38.9755 43.9276 40.4857 45.6612 41.3409C46.4034 41.7069 46.6185 41.7465 47.8668 41.7465C49.1038 41.7465 49.3337 41.7051 50.0437 41.3549C51.0552 40.8559 51.9596 39.9473 52.4563 38.9311C52.8048 38.2179 52.846 37.987 52.846 36.7442C52.846 35.5014 52.8048 35.2704 52.4563 34.5572C51.9608 33.5436 51.0549 32.632 50.0549 32.1404C49.4195 31.8281 49.0489 31.7481 48.0854 31.7153C47.3276 31.6896 46.6784 31.7468 46.2895 31.8738ZM49.489 34.3901C51.3087 35.6603 51.0334 38.5285 49.0103 39.3776C48.0126 39.7965 46.652 39.57 45.8795 38.8565C44.8206 37.8786 44.7634 35.8412 45.7641 34.7477C46.6366 33.7942 48.3936 33.6255 49.489 34.3901Z" fill="#DF923A"/>
</svg>
