<svg width="57" height="57" viewBox="0 0 57 57" fill="none" xmlns="http://www.w3.org/2000/svg">
<path fill-rule="evenodd" clip-rule="evenodd" d="M17.7806 0.285864C17.4182 0.466434 17.051 0.76459 16.8511 1.04043C16.2402 1.88392 16.2308 2.03425 16.5713 5.50586C16.9631 9.49993 16.9547 9.31687 16.7465 9.36037C16.6157 9.38767 16.3431 8.75998 15.6201 6.7677C15.0956 5.32189 14.5105 3.90758 14.3201 3.62494C12.912 1.5349 9.38647 2.50425 9.08424 5.06441C8.97775 5.96658 9.20001 6.44315 10.8925 8.94236C11.7773 10.2487 12.5494 11.3898 12.6084 11.4779C12.6871 11.5955 12.5894 11.7753 12.2409 12.1532C11.324 13.148 10.6457 14.4279 10.2233 15.9602C10.0752 16.4973 10.0213 17.0945 10.0238 18.169C10.0268 19.5104 10.0793 19.8834 10.6127 22.3535C10.9349 23.845 11.1984 25.1321 11.1984 25.2139C11.1984 25.3223 10.9834 25.3624 10.4018 25.3624C9.96364 25.3624 9.43881 25.4319 9.23535 25.5169C8.73816 25.7246 8.2677 26.307 8.18648 26.8154L8.1201 27.2315L5.4112 27.1992L2.70231 27.167V27.8865C2.70231 29.693 3.36025 31.3319 4.57179 32.5435C4.97654 32.9482 5.30778 33.3029 5.30778 33.3316C5.30778 33.3604 5.07748 33.5188 4.79586 33.6838C3.64322 34.3593 2.20478 36.0963 1.29876 37.9067C-0.259428 41.0203 -0.425612 44.826 0.854693 48.0753C2.42953 52.0719 5.89616 55.0217 10.0656 55.9125C11.2204 56.1592 13.9477 56.1886 14.9933 55.9655C17.232 55.4879 19.4912 54.3881 20.8991 53.0901L21.4237 52.6065L35.2574 52.5499L49.091 52.4932L49.8477 52.1347C50.9008 51.6358 51.5568 50.9936 52.0663 49.9626L52.4894 49.1068L52.5209 39.9633L52.5525 30.8197L53.7875 30.7815C55.1219 30.7402 55.3746 30.6414 55.8808 29.9633C56.0904 29.6826 56.1144 29.4894 56.1144 28.0811C56.1144 26.3679 56.0585 26.1934 55.3348 25.6526C55.0466 25.4371 54.8391 25.4163 52.667 25.3845L50.3117 25.3499L50.0591 24.4782C49.3478 22.0236 47.6672 19.5722 45.8416 18.3268L45.1977 17.8875L45.8754 17.2412C47.1237 16.0504 47.7446 14.6767 47.8655 12.838L47.9357 11.7686L45.2848 11.7703C42.2677 11.7722 41.6533 11.8673 40.3981 12.5269C39.624 12.9337 38.6577 13.764 38.1822 14.4307L37.9399 14.7706L37.9364 13.3872C37.9335 12.2443 37.975 11.8908 38.1755 11.3548C38.603 10.2125 39.8029 9.25955 41.0251 9.09212L41.5578 9.01905V8.11258V7.20621L40.9371 7.27917C38.7452 7.53677 36.8386 9.17187 36.2945 11.2606C36.1599 11.7772 36.1203 12.5819 36.1203 14.7944C36.1203 16.3701 36.0821 17.6587 36.0353 17.6579C35.9885 17.6572 35.67 17.5813 35.3273 17.4893C34.5198 17.2726 32.8392 17.2731 31.981 17.4903C30.7597 17.7995 29.6902 18.4224 28.7133 19.3937C28.094 20.0094 27.8423 20.201 27.8929 20.0184C28.0618 19.4093 28.1049 17.6381 27.9711 16.8082C27.6866 15.0444 26.8864 13.3218 25.8237 12.1858C25.4461 11.7821 25.341 11.5977 25.4208 11.4786C25.48 11.3901 26.2523 10.2487 27.1371 8.94236C28.8296 6.44315 29.0519 5.96658 28.9454 5.06441C28.6431 2.50425 25.1176 1.5349 23.7095 3.62494C23.5191 3.90758 22.9346 5.32031 22.4106 6.7643C21.8868 8.2083 21.4309 9.38892 21.3976 9.38801C21.0889 9.37918 21.0901 9.10979 21.4127 5.93463C21.5966 4.12576 21.7154 2.43458 21.677 2.17109C21.4282 0.462582 19.3976 -0.519906 17.7806 0.285864ZM19.4728 1.91575C19.9398 2.16565 19.948 2.34441 19.6391 5.51447C19.2811 9.18728 19.3021 9.07445 18.9863 9.02891C18.7481 8.99459 18.7279 8.88119 18.4318 5.93463C18.0514 2.14979 18.0544 2.41011 18.3867 2.07797C18.6792 1.78537 19.1093 1.72114 19.4728 1.91575ZM12.7089 4.54694C12.9012 4.72388 13.2724 5.59524 13.9228 7.39732L14.8595 9.99271L14.6024 10.201C14.4609 10.3156 14.2831 10.4092 14.207 10.4092C14.0193 10.4092 10.8586 5.71 10.8586 5.43098C10.8586 4.51624 12.0545 3.94485 12.7089 4.54694ZM26.6058 4.48067C26.9437 4.68027 27.1711 5.06259 27.1711 5.43098C27.1711 5.71 24.0103 10.4092 23.8226 10.4092C23.7466 10.4092 23.5687 10.3156 23.4272 10.201L23.1701 9.99271L24.1068 7.39732C24.7573 5.59524 25.1284 4.72388 25.3207 4.54694C25.6511 4.243 26.1591 4.21684 26.6058 4.48067ZM20.5341 11.0322C22.0572 11.3548 23.67 12.3477 24.6231 13.5494C25.6353 14.8255 26.2648 16.607 26.2648 18.1952C26.2648 18.7242 25.1984 24.3895 24.953 25.1641C24.8944 25.349 24.5535 25.3624 19.9068 25.3624C16.3036 25.3624 14.9447 25.3278 15.0006 25.2374C15.1234 25.0386 16.1925 24.5819 16.7201 24.5027L17.2023 24.4304V23.537V22.6436H16.8863C15.9064 22.6436 14.408 23.2936 13.5605 24.0863C13.2563 24.3708 12.9876 24.5832 12.9633 24.5582C12.8176 24.4079 11.765 18.7379 11.7667 18.1124C11.774 15.421 13.3612 12.8507 15.7414 11.6758C17.3258 10.8939 18.8896 10.6838 20.5341 11.0322ZM45.9176 13.836C45.5596 15.0806 44.5807 16.2278 43.4014 16.7851C42.6525 17.1388 42.5893 17.1486 40.7931 17.1886C39.0615 17.227 38.9524 17.217 38.9534 17.0195C38.9555 16.6233 39.5074 15.6226 40.0346 15.0589C41.1192 13.8996 42.0037 13.5995 44.3691 13.5886L45.991 13.5811L45.9176 13.836ZM21.7336 15.3936V16.2999H22.6398H23.5461V15.3936V14.4874H22.6398H21.7336V15.3936ZM21.7336 19.0186V19.9249H22.6398H23.5461V19.0186V18.1124H22.6398H21.7336V19.0186ZM43.6562 19.2422C45.5202 19.8789 47.2049 21.8573 48.1683 24.5411L48.4631 25.3624H37.9281H27.3933L27.4659 25.0508C27.5969 24.4885 28.1692 23.2027 28.6445 22.4026C29.245 21.3917 30.3199 20.2453 31.0622 19.824C32.3384 19.0997 33.9586 18.9264 35.3721 19.363L36.1203 19.5941V20.5524C36.1203 21.0795 36.0928 21.5108 36.0591 21.5108C35.908 21.5108 35.0875 21.0343 34.6071 20.6677C34.3167 20.446 34.0398 20.2647 33.9914 20.2647C33.9431 20.2647 33.6334 20.5382 33.3033 20.8725L32.703 21.4802L33.1975 21.8854C34.5852 23.0225 36.1101 23.6259 37.3125 23.5136C38.4411 23.4083 39.8004 22.7493 40.9837 21.7342L41.2591 21.4978L40.6199 20.8586L39.9809 20.2195L39.5516 20.5624C39.1089 20.9159 38.1405 21.5108 38.0078 21.5108C37.9665 21.5108 37.9328 20.9512 37.9328 20.2671V19.0234L40.1701 18.9927C42.6869 18.9581 42.861 18.9706 43.6562 19.2422ZM21.7336 22.6436V23.5499H22.6398H23.5461V22.6436V21.7374H22.6398H21.7336V22.6436ZM11.7922 27.9395C11.7704 28.36 11.7424 28.7746 11.7303 28.8608C11.7158 28.9634 11.5324 28.8702 11.1984 28.5909C10.918 28.3562 10.5229 28.0851 10.3205 27.9885C10.034 27.8516 9.95231 27.7418 9.95231 27.4938V27.1749H10.8922H11.8322L11.7922 27.9395ZM54.3586 28.0811V28.9874H52.5461H50.7336V32.6124V36.2374L36.8849 36.2328L23.0363 36.2283L22.5265 35.539C21.5874 34.2693 20.1311 33.2975 18.5617 32.8934C18.0154 32.7528 17.5035 32.7161 16.5793 32.7514C15.4223 32.7954 14.9642 32.8938 13.7756 33.353C13.5937 33.4232 13.5773 33.3206 13.5773 32.1147V30.7999H31.2492H48.9211V29.8936V28.9874H31.2492H13.5773L13.5789 28.336C13.5797 27.9778 13.6112 27.57 13.6487 27.4297L13.717 27.1749H34.0378H54.3586V28.0811ZM9.06645 29.4034C10.0902 29.8872 10.7704 30.5417 11.2539 31.5081C11.4725 31.9453 11.6515 32.3779 11.6515 32.4693C11.6515 32.6104 11.3724 32.6295 9.81071 32.5948C8.0203 32.555 7.94916 32.5441 7.21317 32.1963C6.18945 31.7126 5.50919 31.058 5.02571 30.0916C4.80708 29.6545 4.62809 29.2219 4.62809 29.1304C4.62809 28.9893 4.90722 28.9703 6.46891 29.0049C8.25932 29.0447 8.33046 29.0557 9.06645 29.4034ZM47.1086 33.5186V34.4249H48.0148H48.9211V33.5186V32.6124H48.0148H47.1086V33.5186ZM10.0749 34.4249H11.7648V35.671C11.7648 36.3563 11.7368 36.9171 11.7025 36.9171C11.5534 36.9171 10.8691 36.5165 10.3253 36.1109C10.0009 35.869 9.69675 35.671 9.64951 35.671C9.507 35.671 8.47965 36.7282 8.47965 36.8749C8.47965 36.9498 8.79752 37.2501 9.18596 37.5421C11.661 39.4027 13.6811 39.4027 16.1562 37.5421C16.5446 37.2501 16.8625 36.9535 16.8625 36.8831C16.8625 36.7355 15.8421 35.671 15.7008 35.671C15.649 35.671 15.3412 35.869 15.0168 36.1109C14.473 36.5165 13.7887 36.9171 13.6396 36.9171C13.6053 36.9171 13.5776 36.5475 13.5782 36.0958L13.579 35.2745L14.796 34.9051C17.9315 33.9534 20.1089 34.8482 21.9542 37.8468C24.8101 42.4873 23.7048 48.5609 19.3782 52.0019C18.3613 52.8106 16.5419 53.7223 15.3332 54.0286C12.6324 54.7131 9.50111 54.2534 7.09683 52.8195C5.83442 52.0666 4.16239 50.4119 3.40375 49.1648C1.56825 46.1472 1.30703 42.4434 2.69925 39.1719C3.49902 37.2924 4.97179 35.5645 6.35302 34.885C7.06352 34.5355 7.94972 34.2981 8.23406 34.3809C8.31698 34.405 9.14541 34.4249 10.0749 34.4249ZM50.7336 40.7686V43.4874H38.0594H25.3854L25.3036 42.5056C25.2045 41.3157 24.7917 39.5575 24.4075 38.6888L24.1249 38.0499H37.4292H50.7336V40.7686ZM47.1086 40.7686V41.6749H48.0148H48.9211V40.7686V39.8624H48.0148H47.1086V40.7686ZM3.64742 44.252C3.78788 45.7562 4.2742 47.1692 5.06876 48.3819C6.62263 50.7536 9.09896 52.2489 11.9064 52.511L12.6711 52.5824V51.685V50.7875L11.7365 50.6592C11.2225 50.5886 10.506 50.4197 10.1444 50.2839C9.22754 49.9393 7.91359 49.032 7.24444 48.2812C6.25356 47.1695 5.43001 45.1685 5.42299 43.8555L5.42106 43.4874H4.4985H3.57605L3.64742 44.252ZM50.7336 46.8443C50.7336 47.7259 50.6744 48.589 50.5958 48.8551C50.412 49.4773 49.4735 50.4158 48.8513 50.5996C48.4974 50.7042 45.3354 50.7374 35.7325 50.7374H23.0801L23.3751 50.2559C24.1545 48.9843 24.8627 47.2508 25.0759 46.0928C25.116 45.8748 25.174 45.6071 25.2047 45.4981C25.2575 45.3109 25.9638 45.2999 37.997 45.2999H50.7336V46.8443ZM47.1086 48.0186V48.9249H48.0148H48.9211V48.0186V47.1124H48.0148H47.1086V48.0186Z" fill="#DF923A"/>
</svg>
