<svg width="58" height="58" viewBox="0 0 58 58" fill="none" xmlns="http://www.w3.org/2000/svg">
<path fill-rule="evenodd" clip-rule="evenodd" d="M45.0086 0.120893C41.3497 0.819737 38.4618 3.01908 36.8767 6.31436C35.952 8.23667 35.8725 8.70834 35.8209 12.5717C35.7962 14.4265 35.7417 15.9437 35.6999 15.9432C35.658 15.9428 33.7884 14.9694 31.5451 13.7802C26.9011 11.3182 26.7397 11.2435 26.2663 11.3382C25.7501 11.4415 9.01627 20.3313 8.56014 20.7446C8.13358 21.131 0.347977 33.4317 0.126143 34.0696C-0.0833415 34.6719 -0.0333779 35.2323 0.287024 35.8758C0.976431 37.26 2.65174 37.7512 4.03826 36.9759C4.32105 36.8177 4.57155 36.6883 4.59489 36.6883C4.61823 36.6883 4.63726 38.4189 4.63726 40.5341V44.3801L4.93579 44.615C5.3244 44.9209 5.57275 44.9115 5.96214 44.5765L6.28005 44.303L6.3128 39.1267L6.34543 33.9503L9.24524 29.3397C10.8401 26.8039 12.2529 24.6188 12.3848 24.4839C12.5968 24.2671 26.3028 16.9642 26.4977 16.9642C26.5401 16.9642 29.7293 18.6349 33.5847 20.6768L40.5944 24.3894L43.6323 29.2023L46.6702 34.0152V43.1166V52.2182H41.8551H37.04V46.3236V40.4291H37.9862C38.7815 40.4291 38.994 40.388 39.3175 40.1717C39.9728 39.7337 40.0986 39.3277 40.0986 37.6518C40.0986 35.976 39.9728 35.5699 39.3175 35.1319L38.9325 34.8746H33.7629C28.1527 34.8746 28.2007 34.8694 28.0435 35.4963C27.9606 35.8266 28.2145 36.3983 28.4912 36.5045C28.592 36.5432 30.8627 36.5749 33.5371 36.5749H38.3995V37.6518V38.7287H26.5034H14.6073V37.6518V36.5749H19.8663C22.7588 36.5749 25.2079 36.5432 25.3087 36.5045C25.5854 36.3983 25.8393 35.8266 25.7565 35.4963C25.5983 34.8661 25.6817 34.8746 19.6521 34.875C14.3094 34.8754 14.0834 34.884 13.7283 35.1007C13.0174 35.5343 12.9087 35.8728 12.9087 37.6518C12.9087 39.0359 12.9376 39.2861 13.1339 39.6082C13.5082 40.2226 13.9696 40.4282 14.9755 40.4286L15.8536 40.4291V46.3236V52.2182H11.1035H6.35336L6.31676 49.8973C6.28175 47.684 6.2685 47.5649 6.03148 47.3278C5.72615 47.0227 5.17779 47.0028 4.86532 47.2858C4.64372 47.4865 4.63726 47.6261 4.63726 52.2466C4.63726 56.5244 4.65663 57.0337 4.83054 57.3283C5.2571 58.0507 3.2334 57.9994 31.279 57.9991C55.3588 57.999 56.8327 57.9877 57.2067 57.8008C57.4335 57.6874 57.688 57.4328 57.8013 57.2059C57.988 56.832 57.9994 55.4642 57.9995 33.5008C57.9998 7.74493 58.0409 9.23874 57.2765 7.20251C56.723 5.72831 55.9329 4.48649 54.8275 3.35371C53.3257 1.81467 51.647 0.843769 49.5224 0.285373C48.3915 -0.0119612 46.1347 -0.0941448 45.0086 0.120893ZM49.3848 2.00171C50.4885 2.31537 51.9878 3.09855 52.866 3.82006C54.7677 5.38257 56.0543 7.83935 56.2593 10.2998L56.333 11.183H46.9131H37.4932L37.4951 10.5879C37.5028 8.26909 38.8804 5.50284 40.8243 3.90304C42.1769 2.78988 43.7003 2.07063 45.3159 1.78236C46.2862 1.60915 48.4062 1.72353 49.3848 2.00171ZM56.3003 17.701V22.5187H50.9921H45.6839L45.1341 21.6641C44.458 20.6134 44.3344 20.5294 40.4672 18.4966L37.4932 16.9333V14.9083V12.8834H46.8967H56.3003V17.701ZM34.8171 17.4288C39.3111 19.8039 43.1002 21.8572 43.2373 21.9914C43.4638 22.2131 50.7734 33.71 51.1616 34.4552C51.3625 34.8409 51.2837 35.1339 50.8968 35.4384C50.4872 35.7608 50.0254 35.7309 49.6312 35.3564C49.4507 35.185 47.6583 32.4281 45.6481 29.2303C43.4341 25.7079 41.8458 23.295 41.6191 23.1091C41.1103 22.6917 27.0966 15.2862 26.6445 15.1958C26.327 15.1323 25.4444 15.566 19.2278 18.8405C11.6043 22.8561 11.5229 22.9014 11.0821 23.3844C10.9192 23.5628 9.16628 26.285 7.18676 29.4335C5.20725 32.5819 3.50203 35.2489 3.39757 35.36C3.293 35.4711 3.02925 35.5909 2.81149 35.6263C2.49098 35.6783 2.34641 35.6325 2.05354 35.3858C1.85006 35.2145 1.69224 34.9739 1.69314 34.8362C1.69507 34.5411 9.49767 22.1173 9.82532 21.8876C10.2795 21.5693 26.3371 13.1128 26.4898 13.1115C26.5758 13.1107 30.3231 15.0535 34.8171 17.4288ZM25.8227 21.1641C24.4694 21.3202 23.2846 21.9104 22.3317 22.9032C21.2202 24.0615 20.7169 25.3194 20.7164 26.9411C20.7154 30.1586 23.2515 32.7141 26.4513 32.7195C29.702 32.725 32.2857 30.1399 32.2802 26.8875C32.2744 23.4434 29.256 20.768 25.8227 21.1641ZM27.3531 22.9185C27.9995 23.0222 29.0447 23.61 29.5208 24.1373C29.7449 24.3856 30.0626 24.8753 30.2269 25.2257C30.4837 25.7739 30.5254 26.0129 30.5254 26.9396C30.5254 27.8912 30.4883 28.0921 30.2062 28.6671C29.7993 29.496 29.0585 30.2373 28.2299 30.6443C27.6553 30.9266 27.4545 30.9638 26.5034 30.9638C25.5772 30.9638 25.3383 30.9221 24.7904 30.6651C23.9374 30.2648 23.3232 29.6876 22.9093 28.8971C22.4838 28.0845 22.4084 27.7705 22.4115 26.8225C22.4149 25.7164 22.7634 24.8816 23.5479 24.1003C23.896 23.7535 24.4258 23.3519 24.7252 23.2078C25.2671 22.9471 26.2416 22.7494 26.6734 22.8125C26.798 22.8308 27.1039 22.8785 27.3531 22.9185ZM56.3003 28.98V33.741L54.5159 33.7381L52.7315 33.7352L50.0124 29.4191C48.5169 27.0453 47.1734 24.9041 47.0268 24.661L46.7605 24.2191H51.5303H56.3003V28.98ZM56.3003 40.2605V45.0796L52.3633 45.0498L48.4262 45.02L48.3966 40.8542C48.3801 38.563 48.3978 36.6883 48.4356 36.6883C48.4736 36.6883 48.6473 36.79 48.8218 36.9142C50.0447 37.7855 52.0637 37.23 52.7226 35.8411L52.9121 35.4414H54.6062H56.3003V40.2605ZM33.8636 40.5861C33.7724 40.6724 32.0752 42.2014 30.0923 43.9836L26.4868 47.2241L23.1246 44.1891C21.2753 42.5199 19.5839 40.9926 19.3658 40.795L18.9692 40.4358L26.4993 40.4324C32.9203 40.4295 34.0051 40.4522 33.8636 40.5861ZM21.4101 44.93C23.4637 46.782 25.1439 48.33 25.1439 48.37C25.1439 48.453 17.8103 55.0888 17.6548 55.1465C17.5954 55.1686 17.553 52.351 17.553 48.3734C17.553 44.6276 17.5808 41.5626 17.6147 41.5626C17.6485 41.5626 19.3565 43.078 21.4101 44.93ZM35.3139 51.7563L35.2839 55.1487L31.5679 51.8015C29.524 49.9606 27.87 48.3996 27.8923 48.3328C27.9145 48.2659 29.5868 46.7215 31.6083 44.9007L35.2839 41.5902L35.3139 44.9771C35.3303 46.84 35.3303 49.8906 35.3139 51.7563ZM56.3003 51.538V56.299H52.335H48.3696V51.538V46.777H52.335H56.3003V51.538ZM30.3038 52.955L33.9516 56.2423L30.2275 56.2721C28.1793 56.2886 24.8235 56.2886 22.7701 56.2721L19.0368 56.2423L22.6851 52.9328C24.6917 51.1125 26.4061 49.6332 26.4947 49.6454C26.5834 49.6577 28.2976 51.1469 30.3038 52.955ZM15.8536 55.1088V56.299H11.0951H6.3367V55.1088V53.9185H11.0951H15.8536V55.1088ZM46.6702 55.1088V56.299H41.8551H37.04V55.1844C37.04 54.5712 37.074 54.0356 37.1155 53.9941C37.157 53.9525 39.3238 53.9185 41.9306 53.9185H46.6702V55.1088Z" fill="#DF923A"/>
</svg>
