<svg width="110" height="36" fill="none" xmlns="http://www.w3.org/2000/svg"><path d="M47.453 24.195a3.64 3.64 0 01-1.953-.537 4.126 4.126 0 01-1.416-1.445 3.97 3.97 0 01-.527-2.031v-6.338c0-.73.179-1.393.537-1.992a4.017 4.017 0 011.416-1.446 3.638 3.638 0 011.943-.547c.736 0 1.4.176 1.992.528a3.963 3.963 0 011.407 1.435c.351.6.527 1.273.527 2.022v.918c0 .052-.033.078-.098.078h-2.246c-.052 0-.078-.026-.078-.078V14c0-.508-.143-.928-.43-1.26a1.36 1.36 0 00-1.074-.498c-.384 0-.726.16-1.025.479-.3.319-.45.693-.45 1.123v6.338c0 .436.147.813.44 1.133.293.312.638.468 1.035.468.43 0 .788-.153 1.074-.459a1.63 1.63 0 00.43-1.142v-.987H47.56c-.071 0-.107-.032-.107-.097V16.86c0-.065.036-.097.107-.097h3.74c.053 0 .079.032.079.097v3.32c0 .75-.176 1.426-.527 2.032a4.125 4.125 0 01-1.416 1.445c-.586.358-1.247.537-1.983.537zM59.338 24h-6.465c-.052 0-.078-.033-.078-.098l.02-13.74c0-.052.026-.078.078-.078h6.425c.052 0 .079.033.079.098v2.236c0 .052-.027.078-.079.078h-4.101v3.125h4.101c.052 0 .079.026.079.078l.019 2.266c0 .052-.026.078-.078.078h-4.121v3.496h4.12c.053 0 .079.033.079.098v2.285c0 .052-.026.078-.078.078zm4.033 0H61.37c-.104 0-.156-.046-.156-.137l-.02-13.623c0-.104.052-.156.157-.156h1.806l3.38 7.88-.099-7.724c0-.104.06-.156.176-.156h1.983c.078 0 .117.052.117.156l.02 13.643c0 .078-.033.117-.098.117h-1.758l-3.467-7.363.147 7.207c0 .104-.062.156-.186.156zm9.443 0h-2.246c-.065 0-.097-.033-.097-.098l.039-13.74c0-.052.026-.078.078-.078h6.406c.065 0 .098.026.098.078v2.256c0 .052-.026.078-.078.078h-4.102v3.106h4.102c.052 0 .078.032.078.097l.02 2.266c0 .052-.033.078-.098.078h-4.102v5.86c0 .064-.032.097-.098.097zm3.995-.098l2.48-13.74c.013-.052.046-.078.098-.078h2.9c.052 0 .085.026.098.078l2.383 13.74c.006.065-.02.098-.079.098h-2.216c-.065 0-.101-.033-.108-.098l-.215-1.465h-2.724l-.215 1.465c-.007.065-.04.098-.098.098h-2.226c-.052 0-.078-.033-.078-.098zm4.12-9.218l-.117-.743-.087.743-.899 5.615h1.924l-.82-5.615zM88.362 24h-2.265c-.052 0-.078-.033-.078-.098l.039-13.74c0-.052.026-.078.078-.078h4.043c.722 0 1.386.176 1.992.527a4.018 4.018 0 011.445 1.416c.365.593.547 1.263.547 2.012 0 .488-.075.931-.225 1.328-.15.397-.325.733-.527 1.006a3.058 3.058 0 01-.537.605 4.077 4.077 0 011.084 2.823l.02 4.101c0 .065-.033.098-.098.098h-2.266c-.052 0-.078-.02-.078-.059v-4.14c0-.482-.17-.899-.508-1.25a1.667 1.667 0 00-1.25-.528H88.46l-.02 5.88c0 .064-.026.097-.078.097zm1.817-11.523H88.46v3.144h1.719c.41 0 .775-.153 1.094-.459.325-.306.488-.68.488-1.123 0-.423-.157-.788-.469-1.094a1.52 1.52 0 00-1.113-.468zM98.01 24h-2.266c-.052 0-.078-.033-.078-.098l.04-13.74c0-.052.025-.078.077-.078h2.442c.052 0 .097.026.136.078l1.827 2.637 1.816-2.637a.177.177 0 01.146-.078h2.452c.058 0 .087.026.087.078l.04 13.74c0 .065-.027.098-.079.098h-2.265c-.052 0-.078-.033-.078-.098l-.02-10.205-2.099 3.047-2.08-3.047-.02 10.205c0 .065-.026.098-.078.098zm10.742 0h-2.266c-.052 0-.078-.026-.078-.078v-2.266c0-.052.026-.078.078-.078h2.266c.052 0 .078.026.078.078v2.266c0 .052-.026.078-.078.078z" fill="#2C3638"/><path d="M32.071 21.5A14.501 14.501 0 1114.5 3.929v9.623a5.66 5.66 0 107.948 7.948h9.623z" stroke="#344042" stroke-width="7"/><circle cx="26" cy="10" r="4" fill="#DF923A"/></svg>