<svg width="77" height="87" fill="none" xmlns="http://www.w3.org/2000/svg"><path d="M12.82 82.89l-.488.873.003.002.485-.874zm-9.199-8.73l-.86.512.007.01.853-.522zM.34 62.09l-1-.003v.003h1zm.117-38.028l1 .004v-.003h-1zm3.34-12.011l.847.53.007-.01-.854-.52zm9.14-8.614l.482.877.007-.004-.489-.872zm35.919 8.614l-.857.516.006.01.85-.526zm3.34 12.011h-1v.004l1-.003zm.117 38.028h1v-.003l-1 .003zM49.03 74.102l.855.518.004-.007-.859-.511zm-9.199 8.789l-.489-.873-.003.002.492.87zm-2.05-20.801h1v-.003l-1 .003zm-.118-38.028h-1v.004l1-.003zM34.5 17.207l-.647.762.007.006.64-.768zm.059 51.914l-.625-.78-.007.005.632.775zm-8.203 16.05c-4.93 0-9.272-1.06-13.05-3.155l-.97 1.75c4.111 2.279 8.793 3.406 14.02 3.406v-2zm-13.047-3.153c-3.765-2.108-6.703-4.9-8.835-8.38l-1.706 1.045c2.321 3.786 5.516 6.813 9.564 9.08l.977-1.745zm-8.829-8.37C2.387 70.135 1.34 66.29 1.34 62.09h-2c0 4.55 1.14 8.751 3.422 12.582l1.718-1.024zM1.34 62.093l.117-38.027-2-.007-.117 38.028 2 .006zm.117-38.03c0-4.278 1.067-8.096 3.187-11.481L2.95 11.52C.617 15.244-.543 19.434-.543 24.063h2zM4.651 12.57c2.091-3.436 5.006-6.188 8.768-8.257l-.963-1.753c-4.05 2.228-7.23 5.218-9.513 8.97l1.708 1.04zm8.775-8.261c3.74-2.094 8.04-3.154 12.93-3.154v-2c-5.189 0-9.834 1.128-13.907 3.409l.977 1.745zm12.93-3.154c5.014 0 9.332 1.044 12.987 3.095l.978-1.744C36.32.26 31.653-.843 26.356-.843v2zM39.343 4.25c3.682 2.067 6.561 4.837 8.656 8.316l1.713-1.032c-2.28-3.787-5.417-6.798-9.39-9.028l-.98 1.744zm8.662 8.327c2.124 3.428 3.19 7.248 3.19 11.485h2c0-4.592-1.16-8.78-3.49-12.539l-1.7 1.054zm3.19 11.488l.117 38.027 2-.006-.117-38.028-2 .007zm.117 38.024c0 4.158-1.046 7.985-3.14 11.5l1.718 1.023c2.282-3.829 3.422-8.01 3.422-12.523h-2zm-3.136 11.493c-2.133 3.518-5.07 6.328-8.833 8.435l.978 1.745c4.05-2.268 7.245-5.317 9.565-9.143l-1.71-1.037zM39.34 82.02c-3.696 2.09-8.013 3.152-12.985 3.152v2c5.264 0 9.93-1.126 13.97-3.411l-.985-1.74zm-.559-19.933l-.117-38.028-2 .007.117 38.027 2-.006zm-.117-38.025c0-3.1-1.18-5.67-3.524-7.623l-1.28 1.536c1.875 1.563 2.804 3.563 2.804 6.087h2zm-3.517-7.617c-2.29-1.945-5.253-2.875-8.791-2.875v2c3.18 0 5.647.829 7.497 2.4l1.294-1.525zm-8.791-2.875c-3.61 0-6.615.926-8.91 2.875l1.295 1.524c1.846-1.567 4.35-2.399 7.614-2.399v-2zm-8.91 2.875c-2.303 1.955-3.458 4.523-3.458 7.617h2c0-2.53.915-4.533 2.753-6.093l-1.294-1.524zm-3.458 7.617V62.09h2V24.062h-2zm0 38.028c0 3.231 1.142 5.87 3.467 7.8l1.278-1.538c-1.817-1.508-2.745-3.556-2.745-6.262h-2zm3.467 7.8c2.295 1.906 5.296 2.81 8.9 2.81v-2c-3.27 0-5.777-.816-7.622-2.348l-1.278 1.538zm8.9 2.81c3.534 0 6.509-.908 8.835-2.804l-1.263-1.55c-1.892 1.542-4.387 2.353-7.572 2.353v2zm8.828-2.798c2.407-1.925 3.598-4.567 3.598-7.812h-2c0 2.692-.957 4.738-2.847 6.25l1.25 1.562zm26.212 14.512l-1-.001v.001h1zm.117-82.441l1 .001v-.001h-1zm14.414 0h-1v.001l1-.001zm.117 82.441h1v-.001l-1 .001zM75.574 84H61.981v2h13.593v-2zm-13.593 0c-.042 0 .111-.01.267.146.156.156.147.31.147.268h-2c0 .35.088.795.439 1.147.351.351.797.439 1.146.439v-2zm.413.415l.118-82.44-2-.004-.117 82.442 2 .002zm.118-82.442c0 .002 0 .045-.022.11a.634.634 0 01-.154.245.634.634 0 01-.244.154c-.067.022-.11.022-.111.022v-2c-.31 0-.727.078-1.06.41-.331.332-.41.748-.41 1.059h2zm-.532.53h13.477v-2H61.981v2zm13.477 0c-.002 0-.045.001-.111-.021a.634.634 0 01-.245-.154.634.634 0 01-.153-.244c-.022-.066-.022-.11-.022-.111h2c0-.31-.079-.727-.41-1.059-.332-.332-.749-.41-1.059-.41v2zm-.531-.529l.117 82.441 2-.002-.117-82.442-2 .003zm.117 82.44c0 .088-.022-.03.102-.185a.637.637 0 01.25-.189.48.48 0 01.18-.04v2c.376 0 .817-.129 1.132-.522.28-.35.336-.762.336-1.064h-2z" fill="#2C3638"/></svg>