<svg width="60" height="58" fill="none" xmlns="http://www.w3.org/2000/svg"><path fill-rule="evenodd" clip-rule="evenodd" d="M11.895.15c-1.181.42-2.032 1.532-2.73 3.572-.49 1.436-.685 2.987-.606 4.831.083 1.909.358 3.257.964 4.713.232.558.448 1.096.48 1.195.044.134-.179.277-.868.56-.51.21-1.372.644-1.915.965-2.874 1.7-4.74 3.742-6.237 6.831-1.64 3.383-1.493 3.642 2.492 4.38 1.058.196 4.855.169 6.073-.044l.968-.169v1.433c0 2.838.389 6.008 1.063 8.665l.336 1.325-.584.717c-1.21 1.487-1.942 3.475-2.068 5.62-.31 5.282 2.646 9.16 8.453 11.089 6.206 2.06 18.046 2.08 24.458.041 2.346-.746 4.807-2.224 6.11-3.668 1.76-1.953 2.616-4.564 2.446-7.463-.126-2.144-.858-4.132-2.068-5.619l-.584-.717.336-1.325c.674-2.657 1.063-5.827 1.063-8.665v-1.433l.968.167c1.263.219 4.782.244 6.014.044 1.65-.268 2.91-.625 3.19-.903.587-.584.48-1.169-.639-3.475-1.777-3.664-4.306-6.102-8.032-7.744a33.804 33.804 0 01-1.016-.458c-.023-.017.146-.466.377-1 1.511-3.501 1.487-8.087-.06-11.244C49.565.918 48.623.14 47.428.017c-1.566-.16-2.686.794-3.075 2.622-.303 1.425-1.186 2.8-2.968 4.621-1.23 1.257-3.402 3.136-3.707 3.206-.087.02-.587-.099-1.11-.263-1.308-.41-1.774-.398-2.161.06a1.172 1.172 0 00-.304.795c0 .622.421.962 1.657 1.338.95.289 1.017.33 1.086.673.109.542.089 1.505-.046 2.217-.573 3.026-3.946 4.658-7.566 3.662-3.621-.996-6.57.53-8.066 4.174-.49 1.195-1.06 1.84-2.056 2.328-.693.339-.911.386-1.968.425-1.39.051-2.2-.091-3.204-.564-.842-.396-.85-.424-.488-1.754 1-3.678 2.961-6.603 5.859-8.74 1.226-.904 3.198-1.886 4.732-2.356.872-.268 1.288-.46 1.523-.706.425-.445.432-1.003.018-1.492-.387-.458-.853-.47-2.16-.06-.524.164-1.024.283-1.111.263-.305-.07-2.478-1.95-3.707-3.206-1.782-1.821-2.665-3.196-2.968-4.621-.179-.838-.519-1.55-.916-1.92-.708-.655-1.905-.897-2.828-.57zm1.165 2.258c.075.048.218.434.317.859.243 1.043.658 1.94 1.417 3.067 1.016 1.508 2.84 3.429 4.67 4.918l.438.357-1.29.843c-1.295.846-3.257 2.597-3.93 3.507-.193.261-.389.477-.434.478-.045.002-.402-.404-.794-.902-.906-1.15-1.803-2.954-2.2-4.425-.271-1.01-.309-1.378-.316-3.073-.007-1.497.038-2.096.199-2.685.6-2.196 1.332-3.317 1.923-2.944zm34.644.247c.343.364.82 1.484 1.152 2.697.161.59.206 1.188.2 2.685-.008 1.684-.047 2.064-.31 3.034a13.232 13.232 0 01-2.65 5.019l-.351.408-.264-.35c-.73-.97-2.83-2.866-4.073-3.678l-1.317-.861.438-.357c1.8-1.465 3.678-3.442 4.67-4.918.76-1.127 1.174-2.025 1.417-3.067.245-1.051.527-1.21 1.088-.612zM29.423 9.367c-1.018.56-.592 2.171.574 2.171.594 0 1.173-.57 1.173-1.156 0-.876-.974-1.442-1.747-1.015zm11.993 5.997c5.033 4.073 6.85 11.357 4.998 20.042-.137.642-.285 1.206-.328 1.253-.044.047-.476-.121-.962-.375-3.53-1.84-8.732-2.804-15.128-2.804-6.406 0-11.718.988-15.127 2.813-.478.256-.906.424-.952.373-.122-.137-.564-2.353-.763-3.827-.096-.707-.208-2.215-.25-3.352l-.077-2.067.62.234c1.058.4 2.086.583 3.283.584 2.107.003 3.687-.562 5.008-1.792.68-.632.857-.897 1.521-2.27.444-.919.94-1.758 1.213-2.053 1.05-1.131 2.427-1.39 4.51-.849 2.709.705 5.657.134 7.722-1.496 1.394-1.1 2.353-2.98 2.516-4.936l.08-.956.658.416c.362.229 1.018.707 1.458 1.063zm-29.68 1.772c.188.252.54.652.785.89l.445.432-.453.897c-.565 1.118-1.211 2.946-1.48 4.19-.228 1.059-.143.99-1.534 1.233-1.51.264-3.269.336-4.707.191-2-.2-2.052-.216-1.964-.58.136-.556 1.254-2.439 1.997-3.362 1.278-1.588 2.98-2.847 5.19-3.838.63-.283 1.2-.514 1.264-.512.065.001.27.208.458.46zm38.532.184c2.196 1.02 4.123 2.56 5.347 4.273.564.79 1.607 2.714 1.607 2.966 0 .169-.292.23-1.944.409-1.727.186-4.208.028-5.693-.362-.413-.109-.423-.127-.625-1.059-.269-1.245-.914-3.073-1.48-4.192l-.453-.897.444-.432a8.7 8.7 0 00.785-.893c.407-.551.428-.55 2.012.187zM22.132 29.608c-.468.244-.938 1.044-.935 1.592.003.507.458 1.228.935 1.48.871.462 1.87.15 2.32-.721.32-.622.327-.954.035-1.594-.39-.857-1.487-1.209-2.355-.757zm14.082 0c-.468.244-.938 1.044-.935 1.592.003.507.458 1.228.935 1.48.871.462 1.87.15 2.32-.721.32-.622.328-.954.035-1.594-.39-.857-1.486-1.209-2.355-.757zm-.467 6.498c5.552.655 9.338 2.201 11.099 4.532 1.148 1.518 1.513 2.68 1.513 4.806s-.365 3.287-1.513 4.806c-2.357 3.119-8.305 4.82-16.85 4.82-9.784 0-15.852-2.137-17.721-6.242-.506-1.11-.644-1.852-.641-3.443.003-2.067.38-3.247 1.513-4.747 1.95-2.582 6.49-4.23 12.954-4.706 2.04-.15 7.78-.047 9.646.174zm-9.702 4.548c-1.164.501-.84 2.164.422 2.164 1.124 0 1.615-1.443.69-2.025-.438-.274-.717-.309-1.112-.139zm7.04 0c-1.163.501-.839 2.164.423 2.164 1.124 0 1.615-1.443.69-2.025-.438-.274-.717-.309-1.112-.139z" fill="#DF923A"/></svg>