<svg width="58" height="67" fill="none" xmlns="http://www.w3.org/2000/svg"><path fill-rule="evenodd" clip-rule="evenodd" d="M47.108.087c-.632.268-2.853 2.26-4.084 3.664-.888 1.01-1.48 2.037-1.712 2.961-.143.574-.3.77-.4.498-.108-.294-2.134-2.513-2.443-2.676-.82-.432-1.934-.077-2.317.74-.275.588-.7 2.867-.867 4.659-.144 1.538-.08 2.552.213 3.396.097.277.16.519.143.536-.019.018-.352-.352-.74-.822-.781-.946-2.607-2.614-4.147-3.788-.893-.681-1.067-.765-1.604-.764-.687 0-1.302.32-1.653.86-.185.285-.24.686-.276 1.992l-.044 1.636.35.278c.451.357.731.35 1.168-.029.331-.286.357-.385.407-1.543l.054-1.237 1.108.881c1.436 1.142 3.415 3.13 3.934 3.952.457.723.79 1.65.908 2.523.158 1.176-.41 2.269-1.419 2.73-.709.325-1.184.303-1.97-.092-1.069-.536-1.887-1.726-2.284-3.318-.238-.952-.457-1.339-.826-1.457-.393-.126-.977.165-1.142.568-.189.458.119 1.851.643 2.915.207.42.377.783.377.807 0 .023-.332-.207-.738-.513-1.134-.854-2.485-1.657-4.524-2.688-2.2-1.113-2.957-1.264-3.709-.743-.537.373-.912 1.055-.91 1.659.002.613.696 4.057 1.108 5.499.184.64.54 1.676.792 2.301l.458 1.137-.449.452-.448.452-1.485-.578c-1.749-.681-4.872-1.63-5.366-1.63-.19 0-.597.134-.905.298-.616.328-1.15 1.158-1.15 1.787 0 .2.232 1.044.514 1.876.282.831.513 1.588.513 1.68 0 .093-.243.235-.54.316-.922.25-2.813 1.157-3.887 1.865-.962.634-1.08.677-1.861.687-3.496.046-5.522 3.955-3.648 7.039l.45.739-.338.67c-.905 1.8-2.24 5.926-2.24 6.926 0 .173.15.465.33.647.264.266.409.316.726.252.585-.118.69-.257.924-1.213.422-1.73.871-3.15 1.349-4.262.721-1.682.807-1.846.96-1.846.077 0 .738.172 1.469.383 2.225.64 7.803 1.815 8.623 1.816.04 0 .026.334-.028.743-.055.41-.139 2.174-.186 3.92-.101 3.706-.024 4.261.706 5.076.804.898.49.867 8.621.867 8.007 0 7.764.021 8.532-.753.72-.726.759-.91.806-3.849.024-1.499-.014-3.419-.085-4.267-.071-.848-.11-1.562-.086-1.586.024-.024.843-.18 1.82-.347 1.98-.338 4.561-.936 6.183-1.433.59-.18 1.086-.31 1.104-.287.017.022.28.472.583 1 .731 1.276 1.343 2.616 1.98 4.34.41 1.106.6 1.46.868 1.612.443.25.983.074 1.252-.408.18-.324.164-.439-.234-1.664-.236-.724-.92-2.3-1.522-3.504l-1.093-2.188.524-.453c.31-.267.696-.804.947-1.317.388-.794.422-.965.422-2.096 0-1.099-.04-1.314-.374-2-.585-1.2-1.506-2-2.832-2.457-.198-.068.002-.202.898-.6 1.756-.78 2.36-1.63 2.007-2.821-.197-.662-.624-1.03-2.33-2.007-.811-.465-1.562-.899-1.668-.963-.145-.088-.05-.154.385-.266 1.252-.32 3.232-1.123 5.03-2.037 1.51-.768 1.939-1.047 2.156-1.402.425-.692.451-1.205.097-1.874-.255-.481-.476-.67-1.295-1.11l-.988-.53 1.04-.281c1.835-.495 4.925-1.896 5.432-2.463.14-.157.269-.537.303-.898.084-.872-.193-1.352-1.063-1.847-.78-.444-.857-.59-.379-.71.498-.126 1.704-.965 2.643-1.84.822-.765 2.841-3.125 3.157-3.69.258-.46.203-1.424-.103-1.816-.567-.727-.846-.787-3.646-.782-2.278.004-3.23.09-4.252.387-.271.078-.274.059-.328-2.486C49.45 1.106 49.358.702 48.7.267c-.393-.26-1.19-.35-1.59-.18zm.366 7.064c-.076.37-.227.747-.335.837-.307.257-.921 1.205-1.01 1.56-.175.705-1.419.984-2.213.495-1.031-.633-1.213-2.014-.468-3.549.406-.836 1.755-2.36 3.196-3.611l.898-.78.035 2.187c.02 1.22-.026 2.486-.103 2.86zm-7.677 1.766c1.035 1.405 1.498 2.433 1.59 3.531l.074.893-.997.84c-1.087.916-1.23.948-1.989.45-.584-.383-1.094-1.392-1.275-2.527-.148-.921-.013-2.624.356-4.51l.213-1.09.642.702c.354.386.977 1.156 1.386 1.711zm15.873-.96c.227.145-1.467 2.193-2.654 3.209-1.203 1.03-2.03 1.392-3.185 1.396-.806.002-.963-.037-1.264-.32-1.142-1.075-.873-2.481.659-3.454.734-.466 1.254-.647 2.3-.8 1.01-.149 3.926-.17 4.144-.03zm-9.475 4.284c0 .072-.062.13-.136.13-.075 0-.1-.059-.057-.13.044-.07.105-.129.136-.129.031 0 .057.058.057.13zm1.411 2.455c1.287.441 3.785 1.673 3.65 1.8-.196.182-2.434 1.159-3.498 1.526-.777.27-1.23.342-2.14.343-1.346.001-1.88-.188-2.485-.884-.325-.373-.403-.577-.403-1.047 0-.993.526-1.667 1.544-1.979.68-.207 2.382-.084 3.332.241zM37.49 16.93c-.378.411-.534.449-.54.13-.002-.125-.105-.523-.23-.885l-.225-.658.66.528.661.53-.326.355zm3.384.259c.05.23.168.575.264.764l.174.344-1.151-.02c-.634-.012-1.138-.06-1.12-.11.053-.146 1.514-1.399 1.633-1.399.06 0 .15.19.2.42zm-19.117 1c2.229 1.037 4.835 2.675 5.863 3.683 1.444 1.416 2.191 3.514 1.72 4.825l-.152.422-1.192-.884c-.656-.486-1.492-.994-1.86-1.129-.912-.335-2.555-.343-3.155-.015-.536.294-.496.352-1.156-1.662-.553-1.686-1.43-5.755-1.241-5.755.037 0 .565.231 1.173.515zm20.772 2.519c.744.245 2.105.807 3.024 1.249l1.671.802-.803.452c-1.855 1.043-4.61 2.101-5.938 2.281-1.36.184-3.134-.367-3.727-1.157-.905-1.207-.549-2.9.755-3.585 1.384-.727 2.905-.74 5.018-.042zm-10.633 1.88c.478 0 .46.177-.102.947l-.53.729-.344-.82c-.19-.452-.44-.958-.556-1.126-.332-.477-.261-.49.513-.097.398.202.857.368 1.019.368zm2.986 2.39l.267.456-.67.006a8.089 8.089 0 00-1.214.112c-.3.058-.545.081-.545.051 0-.03.356-.526.79-1.103l.792-1.047.157.535c.086.294.277.74.423.99zm-9.533 1.944c.374.116 1.08.54 1.724 1.036 1.516 1.168 2.626 1.713 5.518 2.71 3.19 1.097 4.624 1.79 5.565 2.687.398.38.724.753.724.83 0 .077-.679.321-1.508.542-8.092 2.155-16.936 2.241-26.241.257-1.128-.24-1.858-.454-1.81-.53.147-.242 2.16-1.11 3.314-1.43.636-.175 1.736-.41 2.446-.52 2.442-.378 3.699-1.095 6.234-3.555 1.668-1.618 2.497-2.217 3.072-2.22.181 0 .614.086.962.194zm-9.562 1.098c1.277.426 2.404.821 2.505.878.133.076-.032.243-.62.625-.996.649-1.737.93-2.728 1.034l-.769.081-.545-1.58c-.514-1.49-.565-1.813-.283-1.813.065 0 1.163.349 2.44.775zm21.36-.197c1.975.681 6.516 3.075 6.264 3.303-.057.052-.817.4-1.688.773l-1.585.68-.597-.586c-.328-.321-.963-.82-1.41-1.108-.896-.577-3.405-1.613-5.251-2.166-.653-.196-1.187-.391-1.187-.434 0-.044.167-.178.371-.3 1.182-.704 3.315-.772 5.083-.162zm-13.224 1.033c-.513.517-.408 1.242.227 1.573.99.516 1.864-.77 1.068-1.573-.173-.175-.465-.318-.648-.318s-.474.143-.647.318zm5.78 2.296c-.386.223-.568.515-.573.917-.005.457.514.996.959.996.42 0 .962-.536.962-.953 0-.494-.128-.721-.522-.927-.43-.224-.49-.227-.825-.033zm-3.225.251c-.301.15-.56.625-.56 1.028 0 .366.568.893.962.893.452 0 .963-.538.963-1.015 0-.716-.749-1.213-1.365-.906zm-5.067.24c-.114.068-.28.299-.369.514-.326.795.41 1.606 1.187 1.308.682-.26.838-1.234.27-1.684-.36-.286-.752-.336-1.088-.137zM7.181 35.98c2.355.707 6.228 1.504 9.048 1.86 7.869.996 16.13.453 22.586-1.486 2.47-.741 2.75-.768 3.58-.347 1.221.621 1.726 2.297 1.09 3.62-.349.727-.933 1.118-2.365 1.582-8.33 2.697-18.922 3.215-28.934 1.413-2.818-.508-6.536-1.454-7.323-1.864-1.19-.62-1.73-2.235-1.164-3.49.276-.611 1.033-1.32 1.527-1.43.193-.043.409-.095.48-.116.18-.054.799.054 1.475.258zm12.415 9.517c1.796.147 8.64.086 10.377-.091.687-.07.795-.05.88.16.054.132.128 1.853.166 3.824.061 3.2.046 3.62-.145 3.913l-.214.328H16.555l-.213-.327c-.19-.292-.204-.67-.132-3.46.045-1.723.118-3.473.163-3.889l.082-.756.657.075c.361.04 1.479.141 2.484.223zM.316 52.49c-.345.274-.353.309-.277 1.213.082.98.577 2.743 1.015 3.615.143.284.486.854.763 1.265l.502.747-.538.61c-1.447 1.64-1.619 3.337-.456 4.509.672.677 1.339.872 2.712.792 1.213-.07 2.222-.41 3.356-1.126l.82-.518.671.267c3.451 1.375 7.988 2.116 13.89 2.27 6.1.158 11.614-.472 15.504-1.772l1.21-.405.884.467c1.114.588 2.063.845 3.128.846 1.15.001 1.731-.19 2.366-.78.54-.502.842-1.165.842-1.847 0-.553-.383-1.533-.867-2.216l-.455-.641.234-.393c1.15-1.934 1.577-3.233 1.691-5.142.062-1.028.038-1.313-.132-1.574-.267-.41-.654-.53-1.105-.342-.47.196-.65.622-.65 1.54 0 1.55-.672 3.43-1.74 4.87-.771 1.039-.756 1.31.132 2.277.421.458.765.976.86 1.295.147.497.138.547-.139.773-.67.547-2.512.195-3.855-.736-.746-.517-1.093-.546-2.06-.17-7.404 2.883-22.738 2.705-29.575-.343-1.01-.45-1.313-.416-2.153.242-1.014.793-1.91 1.16-2.988 1.222-.753.044-.951.01-1.212-.202-.298-.243-.304-.279-.144-.82.126-.421.405-.793 1.107-1.471 1.243-1.202 1.258-1.328.309-2.52-1.067-1.34-1.756-2.914-2.055-4.694-.113-.677-.22-.932-.471-1.132-.417-.33-.684-.325-1.124.024z" fill="#DF923A"/></svg>