<svg width="64" height="49" fill="none" xmlns="http://www.w3.org/2000/svg"><path fill-rule="evenodd" clip-rule="evenodd" d="M14.51.124c-.784.188-1.711.839-2.123 1.49-1.162 1.842-.66 3.935 1.248 5.2l.336.222-.527 2.348c-.29 1.292-.682 3.011-.87 3.822l-.342 1.473-.993.172c-2.036.353-4.69 1.403-6.595 2.612-1.528.969-2.178 1.853-2.31 3.146-.093.921.123 1.698.725 2.596.451.674.47.745.274 1.018l-.762 1.058C.377 28.328-.512 32.718.291 36.535 1.738 43.4 7.646 48.208 14.634 48.208c5.099 0 9.929-2.8 12.52-7.26l.627-1.077h4.627c4.609 0 4.629 0 4.705.296.043.163.339.835.658 1.494 1.12 2.312 2.83 4.032 5.117 5.152 1.94.949 2.935 1.178 5.049 1.164 1.446-.01 1.928-.072 2.947-.378 3.476-1.047 6.043-3.371 7.38-6.683l.449-1.108.87-.296c1.125-.382 1.677-.727 2.547-1.59a5.936 5.936 0 001.64-2.85c.305-1.18.31-10.327.005-11.502-.61-2.354-2.328-4.057-4.647-4.606-.721-.17-2.042-.21-7.076-.212l-6.19-.002v-2.37c0-1.895.045-2.457.222-2.813.122-.245.738-.976 1.369-1.626.631-.65 1.188-1.319 1.238-1.487.105-.357-.225-1.08-.553-1.206-.671-.259-.953-.1-2.377 1.338-1.996 2.017-2.031 2.112-2.088 5.558l-.044 2.745h-1.71c-.946 0-1.748-.06-1.793-.134-.046-.073-.577-2.621-1.182-5.662a842.303 842.303 0 00-1.17-5.832c-.054-.223.004-.328.22-.397.16-.05.538-.317.84-.59 1.562-1.418 1.61-3.68.11-5.187-1.139-1.144-.58-1.098-13.059-1.082-6.014.008-11.133.062-11.374.12zm22.925 2.614c.222.25.404.612.404.805 0 .461-.348 1.127-.684 1.307-.176.095-3.982.143-11.252.143H14.917l-.375-.296c-.787-.622-.734-1.697.11-2.216.42-.26.779-.267 11.407-.233l10.973.036.404.454zm-1.88 4.791c.211.894 2.422 11.96 2.422 12.117 0 .101-.12.332-.268.513l-.27.328-1.598-1.596c-.879-.878-1.598-1.653-1.598-1.723 0-.07.311-.459.691-.863.538-.571.692-.835.692-1.186 0-.627-.465-1.094-1.091-1.094-.449 0-.68.19-2.742 2.263-1.99 2-2.253 2.315-2.253 2.716 0 .597.526 1.135 1.109 1.135.325 0 .605-.167 1.155-.689l.725-.689 1.89 1.905 1.892 1.905-.723 1.285-.723 1.285h-3.383l-.298-.587c-.786-1.548-2.37-3.613-3.797-4.952-3.165-2.97-7.288-4.756-11.508-4.984-1.219-.066-1.411-.109-1.354-.3.036-.123.411-1.693.834-3.489.422-1.796.796-3.343.831-3.439.05-.136 2.112-.173 9.678-.173h9.615l.073.312zm-18.101 9.49c6.528 1.144 11.666 5.958 13.328 12.487.154.604.28 1.252.28 1.438 0 .492-.833 1.284-1.35 1.284-.405 0-.413-.015-.582-1.077-1.141-7.155-7.198-12.401-14.317-12.401-3.174 0-5.88.863-8.536 2.723l-1.064.745-.284-.363c-.282-.36-.38-1.168-.198-1.642.047-.125.42-.442.83-.704 1.834-1.18 4.163-2.108 6.22-2.481 1.48-.269 4.165-.273 5.673-.008zm-3.88 5.456c.103.62.509 1 1.074 1 .723 0 1.037-.443 1.088-1.53l.042-.903.484.042c.785.068 2.497.54 3.378.932.888.395 2.614 1.472 2.773 1.73.057.091-.17.448-.537.84-.85.915-.847 1.601.013 2.061.505.27.721.191 1.493-.542l.741-.704.555.739c1.055 1.405 2.234 4.401 2.234 5.677 0 .368-.025.38-.917.437-.75.049-.965.118-1.176.38-.348.431-.329 1.099.043 1.496.253.27.44.321 1.175.321h.875v.46c0 .705-.52 2.543-1.038 3.67-.455.989-1.54 2.68-1.72 2.68-.05 0-.3-.216-.552-.478-.888-.92-1.768-.936-2.195-.04-.239.5-.117.842.568 1.588l.563.614-.406.328c-1.493 1.205-4.556 2.434-6.07 2.434-.342 0-.353-.028-.353-.904 0-1.104-.264-1.459-1.085-1.459-.765 0-1.033.357-1.104 1.467-.053.844-.076.896-.397.896-.611 0-2.577-.569-3.586-1.037-.968-.45-2.68-1.534-2.68-1.697 0-.046.249-.355.553-.687.786-.856.765-1.725-.049-2.07-.54-.228-.957-.077-1.655.6l-.528.514-.33-.383c-1.098-1.273-2.287-4.162-2.443-5.94l-.043-.486.898-.042c1.033-.049 1.522-.374 1.522-1.013 0-.867-.509-1.238-1.7-1.238h-.747l.123-.799c.264-1.706.911-3.352 1.926-4.898l.725-1.103.66.621c.76.715 1.429.834 1.918.343.489-.49.37-1.162-.342-1.926l-.618-.664 1.091-.723c1.254-.831 2.627-1.434 3.976-1.745 1.593-.368 1.628-.364 1.668.195.02.267.07.693.112.945zm45.71-1.14a4.396 4.396 0 012.043 1.918l.371.707.041 5.121c.046 5.774.02 5.98-.93 7.062-.633.721-1.641 1.34-1.729 1.062-.032-.1-.088-.84-.126-1.642-.228-4.875-3.718-8.981-8.638-10.163-.996-.24-1.503-.278-2.933-.225-1.474.055-1.923.13-3.043.509-1.832.62-3.042 1.378-4.438 2.78-1.397 1.403-2.152 2.62-2.767 4.459-.371 1.11-.453 1.591-.51 3.022l-.068 1.702h-7.881l.099-.451c.055-.249.174-.952.266-1.563l.167-1.112.806-.102c1.865-.234 3.122-1.666 3.122-3.554 0-.676-.285-2.141-.634-3.257-.069-.222.06-.243 1.46-.243.986 0 1.694-.068 1.98-.19.377-.16.706-.65 2.151-3.2l1.706-3.01 9.428.039c9.253.038 9.44.044 10.058.331zm-46.353 5.536c-3.495.968-5.664 4.696-4.761 8.179.817 3.15 3.852 5.34 6.993 5.047 4.245-.396 7.029-4.335 5.963-8.436-.6-2.312-2.472-4.169-4.821-4.784-.945-.247-2.495-.25-3.374-.006zm36.872.98c1.585.333 3.127 1.188 4.358 2.415 1.193 1.189 1.885 2.328 2.374 3.907.483 1.563.451 3.817-.076 5.349-1.169 3.392-3.797 5.621-7.293 6.185-1.209.196-2.908.03-4.165-.404-3.123-1.08-5.323-3.632-5.993-6.954-.776-3.846 1.268-7.952 4.844-9.732a8.963 8.963 0 015.951-.766zm-33.232 1.441c.893.435 1.726 1.29 2.16 2.22.487 1.044.516 2.672.066 3.659-.422.922-1.33 1.852-2.238 2.293-1.03.5-2.647.538-3.64.086-.868-.395-1.856-1.334-2.304-2.19-.318-.606-.367-.868-.368-1.95-.001-1.048.054-1.364.338-1.946.456-.934 1.497-1.928 2.391-2.284.987-.392 2.666-.34 3.595.112zm29.718 2.582c-1.468.479-2.914 1.98-3.324 3.451-.103.368-.155 1.09-.124 1.721.095 1.93 1.087 3.44 2.82 4.295.742.366.957.405 2.206.405 1.237 0 1.467-.04 2.177-.391a5.48 5.48 0 002.412-2.424c.349-.713.39-.944.39-2.187 0-1.243-.041-1.474-.39-2.187-.495-1.013-1.401-1.925-2.401-2.417-.636-.312-1.006-.392-1.97-.425-.757-.025-1.407.032-1.796.159zm3.2 2.516c1.82 1.27 1.544 4.139-.479 4.988-.997.419-2.358.192-3.13-.522-1.06-.977-1.117-3.015-.116-4.108.873-.954 2.63-1.122 3.725-.358z" fill="#DF923A"/></svg>