<svg width="57" height="57" fill="none" xmlns="http://www.w3.org/2000/svg"><path fill-rule="evenodd" clip-rule="evenodd" d="M17.78.286c-.362.18-.729.479-.929.754-.61.844-.62.994-.28 4.466.392 3.994.384 3.81.175 3.854-.13.028-.403-.6-1.126-2.592-.524-1.446-1.11-2.86-1.3-3.143-1.408-2.09-4.934-1.12-5.236 1.44-.106.902.116 1.378 1.809 3.877l1.715 2.536c.08.117-.019.297-.367.675-.917.995-1.595 2.275-2.018 3.807-.148.537-.202 1.134-.2 2.209.004 1.341.056 1.714.59 4.184.322 1.492.585 2.78.585 2.86 0 .11-.215.15-.796.15-.438 0-.963.069-1.167.154-.497.208-.967.79-1.049 1.298l-.066.416-2.709-.032-2.709-.032v.72c0 1.806.658 3.445 1.87 4.657.405.404.736.759.736.788 0 .028-.23.187-.512.352-1.153.675-2.591 2.412-3.497 4.223C-.26 41.02-.426 44.826.855 48.075c1.575 3.997 5.041 6.947 9.21 7.837 1.155.247 3.883.277 4.928.053 2.239-.477 4.498-1.577 5.906-2.875l.525-.484 13.833-.056 13.834-.057.757-.358c1.053-.5 1.709-1.141 2.218-2.172l.423-.856.032-9.144.032-9.143 1.235-.038c1.334-.042 1.587-.14 2.093-.819.21-.28.233-.474.233-1.882 0-1.713-.055-1.888-.78-2.428-.287-.216-.495-.237-2.667-.268l-2.355-.035-.253-.872c-.711-2.454-2.392-4.906-4.217-6.151l-.644-.44.677-.646c1.249-1.19 1.87-2.564 1.99-4.403l.07-1.07-2.65.002c-3.017.002-3.632.097-4.887.757-.774.407-1.74 1.237-2.216 1.904l-.242.34-.004-1.384c-.002-1.143.039-1.496.24-2.032.427-1.143 1.627-2.095 2.85-2.263l.532-.073V7.206l-.62.073c-2.193.258-4.1 1.893-4.644 3.982-.134.516-.174 1.32-.174 3.533 0 1.576-.038 2.865-.085 2.864-.046 0-.365-.077-.708-.169-.807-.216-2.488-.216-3.346.001-1.221.31-2.29.932-3.268 1.904-.619.615-.87.807-.82.624.169-.609.212-2.38.078-3.21-.284-1.764-1.085-3.486-2.147-4.622-.378-.404-.483-.588-.403-.707l1.716-2.537c1.693-2.499 1.915-2.975 1.808-3.878-.302-2.56-3.827-3.53-5.236-1.44-.19.284-.774 1.696-1.298 3.14-.524 1.444-.98 2.625-1.013 2.624-.31-.009-.308-.278.015-3.453.184-1.81.302-3.5.264-3.764-.249-1.708-2.28-2.69-3.896-1.885zm1.693 1.63c.467.25.475.428.166 3.598-.358 3.673-.337 3.56-.653 3.515-.238-.034-.258-.148-.554-3.094-.38-3.785-.378-3.525-.045-3.857a.909.909 0 011.086-.162zm-6.764 2.63c.192.178.563 1.05 1.214 2.851l.937 2.596-.258.208c-.141.115-.319.208-.395.208-.188 0-3.348-4.699-3.348-4.978 0-.915 1.196-1.486 1.85-.884zm13.897-.065c.338.2.565.582.565.95 0 .279-3.16 4.978-3.348 4.978-.076 0-.254-.093-.396-.208l-.257-.208.937-2.596c.65-1.802 1.021-2.673 1.214-2.85.33-.304.838-.33 1.285-.066zm-6.072 6.551c1.523.323 3.136 1.316 4.09 2.517 1.011 1.277 1.64 3.058 1.64 4.646 0 .53-1.066 6.195-1.311 6.97-.059.184-.4.197-5.046.197-3.603 0-4.962-.034-4.906-.125.122-.198 1.191-.655 1.72-.734l.481-.073v-1.786h-.316c-.98 0-2.478.65-3.325 1.442-.305.285-.573.497-.598.472-.145-.15-1.198-5.82-1.196-6.446.007-2.691 1.594-5.261 3.974-6.436 1.585-.782 3.149-.992 4.793-.644zm25.384 2.804c-.358 1.245-1.337 2.392-2.517 2.95-.748.353-.812.363-2.608.403-1.731.038-1.84.028-1.84-.17.002-.396.554-1.396 1.082-1.96 1.084-1.16 1.969-1.46 4.334-1.47l1.622-.008-.073.255zm-24.184 1.558v.906h1.812v-1.813h-1.812v.907zm0 3.625v.906h1.812v-1.813h-1.812v.907zm21.922.223c1.864.637 3.549 2.615 4.512 5.3l.295.82h-21.07l.073-.311c.13-.563.703-1.848 1.178-2.648.601-1.011 1.676-2.158 2.418-2.579 1.276-.724 2.897-.898 4.31-.461l.748.231v.958c0 .527-.027.959-.06.959-.152 0-.973-.477-1.453-.843-.29-.222-.567-.403-.616-.403-.048 0-.358.273-.688.607l-.6.608.494.405c1.388 1.137 2.913 1.74 4.115 1.629 1.13-.106 2.488-.765 3.672-1.78l.275-.236-.64-.64-.638-.639-.43.343c-.442.354-1.41.949-1.543.949-.041 0-.075-.56-.075-1.244v-1.244l2.237-.03c2.517-.035 2.691-.022 3.486.25zm-21.922 3.402v.906h1.812v-1.813h-1.812v.907zm-9.942 5.296c-.022.42-.05.835-.062.92-.014.103-.198.01-.532-.27-.28-.234-.675-.505-.878-.602-.286-.136-.368-.246-.368-.494v-.32h1.88l-.04.765zm42.567.141v.906h-3.625v7.25l-13.85-.004-13.848-.005-.51-.689c-.939-1.27-2.395-2.242-3.964-2.646-.547-.14-1.059-.177-1.983-.142-1.157.044-1.615.143-2.803.602-.182.07-.199-.032-.199-1.238V30.8h35.344v-1.813H13.577l.002-.651c0-.358.032-.766.07-.906l.068-.255h40.642v.906zM9.066 29.403c1.024.484 1.704 1.139 2.188 2.105.219.437.398.87.398.961 0 .141-.28.16-1.841.126-1.79-.04-1.862-.05-2.598-.399-1.024-.483-1.704-1.138-2.187-2.104-.219-.438-.398-.87-.398-.962 0-.14.28-.16 1.84-.125 1.791.04 1.862.05 2.598.398zM47.11 33.52v.906h1.812v-1.814H47.11v.907zm-37.034.906h1.69v1.246c0 .685-.028 1.246-.063 1.246-.149 0-.833-.4-1.377-.806-.324-.242-.628-.44-.675-.44-.143 0-1.17 1.057-1.17 1.204 0 .075.318.375.706.667 2.475 1.86 4.495 1.86 6.97 0 .389-.292.707-.589.707-.659 0-.148-1.02-1.212-1.162-1.212-.052 0-.36.198-.684.44-.544.406-1.228.806-1.377.806-.035 0-.062-.37-.062-.821l.001-.821 1.217-.37c3.136-.952 5.313-.057 7.158 2.942 2.856 4.64 1.75 10.714-2.576 14.155-1.017.809-2.836 1.72-4.045 2.027-2.7.684-5.832.224-8.236-1.21-1.263-.752-2.935-2.407-3.693-3.654a10.94 10.94 0 01-.705-9.993c.8-1.88 2.273-3.607 3.654-4.287.71-.35 1.597-.587 1.881-.504.083.024.911.044 1.84.044zm40.659 6.344v2.718h-25.35l-.081-.981c-.1-1.19-.512-2.949-.896-3.817l-.283-.64h26.609v2.72zm-3.625 0v.906h1.812v-1.814H47.11v.907zM3.647 44.252a9.047 9.047 0 001.422 4.13c1.554 2.372 4.03 3.867 6.837 4.129l.765.071v-1.795l-.934-.128c-.514-.07-1.231-.24-1.593-.375-.916-.345-2.23-1.252-2.9-2.003-.99-1.111-1.814-3.112-1.821-4.425l-.002-.369H3.576l.071.765zm47.087 2.592c0 .882-.06 1.745-.138 2.011-.184.622-1.122 1.56-1.745 1.745-.354.104-3.516.137-13.118.137H23.08l.295-.481c.78-1.272 1.488-3.005 1.7-4.163a9 9 0 01.13-.595c.053-.187.759-.198 12.792-.198h12.737v1.544zm-3.625 1.175v.906h1.812v-1.813H47.11v.907z" fill="#DF923A"/></svg>