<svg width="58" height="58" fill="none" xmlns="http://www.w3.org/2000/svg"><path fill-rule="evenodd" clip-rule="evenodd" d="M45.009.12c-3.66.7-6.547 2.9-8.132 6.194-.925 1.923-1.005 2.394-1.056 6.258-.025 1.855-.08 3.372-.121 3.371-.042 0-1.912-.974-4.155-2.163-4.644-2.462-4.805-2.537-5.279-2.442-.516.104-17.25 8.993-17.706 9.407C8.134 21.13.348 33.432.126 34.07c-.21.602-.16 1.162.161 1.806.69 1.384 2.365 1.875 3.751 1.1.283-.158.534-.288.557-.288.023 0 .042 1.73.042 3.846v3.846l.299.235c.388.306.637.296 1.026-.038l.318-.274.033-5.176.032-5.177 2.9-4.61c1.595-2.536 3.008-4.721 3.14-4.856.212-.217 13.918-7.52 14.113-7.52.042 0 3.231 1.67 7.087 3.713l7.01 3.712 3.037 4.813 3.038 4.813v18.203h-9.63V40.43h.946c.796 0 1.008-.041 1.332-.257.655-.438.78-.844.78-2.52 0-1.676-.125-2.082-.78-2.52l-.386-.257h-5.17c-5.61 0-5.561-.006-5.718.621-.083.33.17.902.447 1.008.101.04 2.372.07 5.046.07H38.4v2.155H14.607v-2.154h5.26c2.892 0 5.34-.032 5.442-.07.276-.107.53-.678.447-1.009-.158-.63-.074-.621-6.104-.621-5.343 0-5.569.009-5.924.226-.71.433-.82.772-.82 2.55 0 1.385.03 1.635.226 1.957.374.615.836.82 1.841.82l.879.001v11.789h-9.5l-.037-2.32c-.035-2.214-.048-2.333-.286-2.57-.305-.305-.853-.325-1.166-.042-.221.2-.228.34-.228 4.96 0 4.278.02 4.788.194 5.082.426.723-1.598.671 26.448.671 24.08 0 25.554-.011 25.928-.198a1.5 1.5 0 00.594-.595c.187-.374.198-1.742.198-23.705 0-25.756.042-24.262-.723-26.298a10.812 10.812 0 00-2.449-3.85c-1.501-1.538-3.18-2.51-5.305-3.068-1.13-.297-3.387-.38-4.513-.164zm4.376 1.882c1.104.313 2.603 1.097 3.481 1.818 1.902 1.563 3.188 4.02 3.393 6.48l.074.883h-18.84l.002-.595c.008-2.319 1.385-5.085 3.33-6.685 1.352-1.113 2.875-1.832 4.49-2.12.971-.174 3.091-.06 4.07.219zM56.3 17.7v4.818H45.684l-.55-.855c-.676-1.05-.8-1.135-4.667-3.167l-2.974-1.564v-4.05H56.3V17.7zm-21.483-.272c4.494 2.375 8.283 4.428 8.42 4.562.227.222 7.536 11.719 7.925 12.464.2.386.122.679-.265.983-.41.323-.872.293-1.266-.082-.18-.171-1.973-2.928-3.983-6.126-2.214-3.522-3.802-5.935-4.029-6.12-.509-.418-14.522-7.824-14.974-7.914-.318-.064-1.2.37-7.417 3.644-7.624 4.016-7.705 4.061-8.146 4.544-.163.179-1.916 2.901-3.895 6.05-1.98 3.148-3.685 5.815-3.79 5.926-.104.111-.368.23-.586.266-.32.052-.465.007-.757-.24-.204-.172-.362-.412-.36-.55.001-.295 7.804-12.719 8.131-12.948.455-.319 16.512-8.775 16.665-8.777.086 0 3.833 1.942 8.327 4.318zm-8.994 3.735a5.641 5.641 0 00-3.491 1.74c-1.112 1.157-1.615 2.415-1.616 4.037 0 3.218 2.535 5.773 5.735 5.778a5.784 5.784 0 005.83-5.832c-.007-3.444-3.025-6.119-6.458-5.723zm1.53 1.755c.646.103 1.692.691 2.168 1.218.224.249.542.738.706 1.089.257.548.298.787.298 1.714 0 .951-.037 1.152-.319 1.727a4.479 4.479 0 01-1.976 1.977c-.575.283-.776.32-1.727.32-.926 0-1.165-.042-1.713-.299-.853-.4-1.467-.977-1.88-1.768-.426-.813-.502-1.127-.498-2.074.003-1.107.351-1.941 1.136-2.723.348-.347.878-.748 1.177-.892.542-.26 1.517-.459 1.948-.395.125.018.43.066.68.106zM56.3 28.98v4.761l-1.784-.003-1.785-.003-2.719-4.316a922.511 922.511 0 01-2.985-4.758l-.267-.442h9.54v4.761zm0 11.28v4.82l-3.937-.03-3.937-.03-.03-4.166c-.016-2.291.002-4.166.04-4.166s.211.102.386.226c1.223.871 3.242.316 3.9-1.073l.19-.4H56.3v4.82zm-22.436.326c-.092.086-1.789 1.615-3.772 3.398l-3.605 3.24-3.362-3.035-3.76-3.394-.396-.36 7.53-.003c6.421-.003 7.506.02 7.365.154zM21.41 44.93c2.054 1.852 3.734 3.4 3.734 3.44 0 .083-7.334 6.719-7.49 6.777-.059.022-.101-2.796-.101-6.774 0-3.745.028-6.81.062-6.81s1.742 1.515 3.795 3.367zm13.904 6.826l-.03 3.393-3.716-3.348c-2.044-1.84-3.698-3.401-3.676-3.468.023-.067 1.695-1.611 3.716-3.432l3.676-3.31.03 3.386c.016 1.863.016 4.914 0 6.78zm20.986-.218v4.761h-7.93v-9.522h7.93v4.761zm-25.996 1.417l3.648 3.287-3.724.03c-2.049.017-5.405.017-7.458 0l-3.733-.03 3.648-3.31c2.007-1.82 3.721-3.299 3.81-3.287.088.013 1.803 1.502 3.809 3.31zm-14.45 2.154v1.19H6.337v-2.38h9.517v1.19zm30.816 0v1.19h-9.63v-1.115c0-.613.034-1.148.075-1.19.042-.041 2.209-.075 4.816-.075h4.74v1.19z" fill="#DF923A"/></svg>